<?xml version="1.0" standalone="no"?>
<!DOCTYPE svg PUBLIC "-//W3C//DTD SVG 1.1//EN" "http://www.w3.org/Graphics/SVG/1.1/DTD/svg11.dtd" >
<svg>
<metadata>
Created by FontForge 20120731 at Sat Dec 29 02:39:20 2018
 By www-data
Cambridge Fontworks
</metadata>
<defs>
<font id="RsultralinHollow" horiz-adv-x="1000" >
  <font-face 
    font-family="Atari 1"
    font-weight="400"
    font-stretch="normal"
    units-per-em="1000"
    panose-1="0 0 6 0 0 0 0 2 0 0"
    ascent="800"
    descent="-200"
    x-height="610"
    cap-height="608"
    bbox="-174 -190 928 714"
    underline-thickness="50"
    underline-position="-55"
    unicode-range="U+0020-F002"
  />
<missing-glyph horiz-adv-x="500" 
d="M31 0v600h438v-600h-438zM438 31v538h-376v-538h376z" />
    <glyph glyph-name=".notdef" horiz-adv-x="500" 
d="M31 0v600h438v-600h-438zM438 31v538h-376v-538h376z" />
    <glyph glyph-name=".null" horiz-adv-x="0" 
 />
    <glyph glyph-name="nonmarkingreturn" horiz-adv-x="278" 
 />
    <glyph glyph-name="space" unicode=" " horiz-adv-x="278" 
 />
    <glyph glyph-name="exclam" unicode="!" 
d="M85 -25h130v-136h-130v136zM215 512v-367h-130v367h130zM68 529q-3 -5 -3 -7v-387l3 -7l7 -3h150l7 3l3 7v387l-3 7q-5 3 -7 3h-150zM68 -177l7 -3l150 -1q6 2 8 5.5t2 5.5v155l-3 8q-5 3 -7 3l-150 -1l-7 -2l-3 -7v-157z" />
    <glyph glyph-name="quotedbl" unicode="&#x22;" 
d="M599 512v-289h-130v289h130zM908 512v-289h-130v289h130zM761 529q-3 -5 -3 -7v-309l3 -7l7 -3h150l7 3l3 7v309l-3 7q-5 3 -7 3h-150zM452 529q-3 -5 -3 -7v-309l3 -7l7 -3h150l7 3l3 7v309l-3 7q-5 3 -7 3h-150z" />
    <glyph glyph-name="numbersign" unicode="#" 
d="M835 515v-140h-150l-7 -3q-3 -5 -3 -7v-150l3 -7l7 -3h150v-140h-750v140h140l7 3l3 7v150l-3 7q-5 3 -7 3h-140v140h750zM534 206l7 3l3 7v150l-3 7q-5 3 -7 3h-153l-7 -3q-3 -5 -3 -7v-150l3 -7l7 -3h153zM391 356h133v-130h-133v130zM68 532q-3 -5 -3 -7v-160l3 -7
l7 -3h140v-130h-140l-7 -3q-3 -5 -3 -7v-160l3 -7l7 -3h770l7 3l3 7v160l-3 7q-5 3 -7 3h-150v130h150l7 3l3 7v160l-3 7q-5 3 -7 3h-770z" />
    <glyph glyph-name="dollar" unicode="$" 
d="M700 280h132v-444h-748v136h606q6 2 8 5.5t2 5.5v297zM832 588v-136h-602l-7 -3q-3 -5 -3 -7v-298h-136v444h748zM524 280v-136h-132v136h132zM375 297q-3 -5 -3 -7v-156l3 -7l7 -3h152l7 3l3 7v156l-3 7q-5 3 -7 3h-152zM67 605q-3 -5 -3 -7v-464l3 -7l7 -3h156l7 3l3 7
v298h602l7 3l3 7v156l-3 7q-5 3 -7 3h-768zM74 -8l-7 -2l-3 -7v-157l3 -6l7 -3l768 -1q6 2 8 5.5t2 5.5v463l-3 7q-5 3 -7 3h-152l-7 -3q-3 -5 -3 -7v-298h-606z" />
    <glyph glyph-name="percent" unicode="%" 
d="M524 588v-298l3 -7l7 -3h300v-444h-442v298l-3 7q-5 3 -7 3h-298v444h440zM690 -28q6 2 8 5.5t2 5.5v151l-3 7q-5 3 -7 3h-158l-7 -3q-3 -5 -3 -7v-152l3 -6l7 -3zM382 280l7 3l3 7v152l-3 7q-5 3 -7 3h-152l-7 -3q-3 -5 -3 -7v-152l3 -7l7 -3h152zM240 432h132v-132
h-132v132zM542 124h138v-132h-138v132zM67 605q-3 -5 -3 -7v-464l3 -7l7 -3h298v-298l3 -6l7 -3l462 -1q6 2 8 5.5t2 5.5v463l-3 7q-5 3 -7 3h-300v298l-3 7q-5 3 -7 3h-460z" />
    <glyph glyph-name="ampersand" unicode="&#x26;" 
d="M524 588v-298l3 -7l7 -3h298v-136h-298l-7 -3q-3 -5 -3 -7v-298h-440v444h298l7 3l3 7v298h132zM382 -28q6 2 8 5.5t2 5.5v151l-3 7q-5 3 -7 3h-152l-7 -3q-3 -5 -3 -7v-152l3 -6l7 -3zM240 124h132v-132h-132v132zM375 605q-3 -5 -3 -7v-298h-298l-7 -3q-3 -5 -3 -7
v-464l3 -6l7 -3l460 -1q6 2 8 5.5t2 5.5v297h298l7 3l3 7v156l-3 7q-5 3 -7 3h-298v298l-3 7q-5 3 -7 3h-152z" />
    <glyph glyph-name="quotesingle" unicode="'" 
d="M835 590v-290h-140v290h140zM678 607q-3 -5 -3 -7v-310l3 -7l7 -3h160l7 3l3 7v310l-3 7q-5 3 -7 3h-160z" />
    <glyph glyph-name="parenleft" unicode="(" 
d="M700 442l-3 7q-5 3 -7 3h-458l-7 -3q-3 -5 -3 -7v-460l3 -6l7 -3l458 -1q6 2 8 5.5t2 5.5v143h132v-290h-748v752h748v-290h-132v144zM683 281l7 -3h152l7 3l3 7v310l-3 7q-5 3 -7 3h-768l-7 -3q-3 -5 -3 -7v-772l3 -6l7 -3l768 -1q6 2 8 5.5t2 5.5v309l-3 7q-5 3 -7 3
h-152l-7 -3q-3 -5 -3 -7v-144h-438v440h438v-144z" />
    <glyph glyph-name="parenright" unicode=")" 
d="M84 298v290h748v-752h-750v290h138v-144l3 -6l7 -3l460 -1q6 2 8 5.5t2 5.5v461l-3 7q-5 3 -7 3h-460l-7 -3q-3 -5 -3 -7v-146h-136zM237 281l3 7v146h440v-442h-440v144l-3 7q-5 3 -7 3h-158l-7 -3q-3 -5 -3 -7v-310l3 -6l7 -3l770 -1q6 2 8 5.5t2 5.5v771l-3 7
q-5 3 -7 3h-768l-7 -3q-3 -5 -3 -7v-310l3 -7l7 -3h156z" />
    <glyph glyph-name="asterisk" unicode="*" 
d="M84 -28h288v-136h-288v136zM546 -28h288v-136h-288v136zM84 280h298l7 3l3 7v144h132v-144l3 -7l7 -3h298v-136h-298l-7 -3q-3 -5 -3 -7v-144h-132v144l-3 7q-5 3 -7 3h-298v136zM84 588h288v-136h-288v136zM546 588h288v-136h-288v136zM529 435l7 -3h308l7 3l3 7v156
l-3 7q-5 3 -7 3h-308l-7 -3q-3 -5 -3 -7v-156zM67 435l7 -3h308l7 3l3 7v156l-3 7q-5 3 -7 3h-308l-7 -3q-3 -5 -3 -7v-156zM67 127l7 -3h298v-144l3 -6l7 -3l152 -1q6 2 8 5.5t2 5.5v143h298l7 3l3 7v156l-3 7q-5 3 -7 3h-298v144l-3 7q-5 3 -7 3h-152l-7 -3q-3 -5 -3 -7
v-144h-298l-7 -3q-3 -5 -3 -7v-156zM529 -180l7 -3l308 -1q6 2 8 5.5t2 5.5v155l-3 8q-5 3 -7 3l-308 -1l-7 -2l-3 -7v-157zM67 -180l7 -3l308 -1q6 2 8 5.5t2 5.5v155l-3 8q-5 3 -7 3l-308 -1l-7 -2l-3 -7v-157z" />
    <glyph glyph-name="plus" unicode="+" 
d="M524 588v-298l3 -7l7 -3h298v-136h-298l-7 -3q-3 -5 -3 -7v-298h-132v298l-3 7q-5 3 -7 3h-298v136h298l7 3l3 7v298h132zM375 605q-3 -5 -3 -7v-298h-298l-7 -3q-3 -5 -3 -7v-156l3 -7l7 -3h298v-298l3 -6l7 -3l152 -1q6 2 8 5.5t2 5.5v297h298l7 3l3 7v156l-3 7
q-5 3 -7 3h-298v298l-3 7q-5 3 -7 3h-152z" />
    <glyph glyph-name="comma" unicode="," 
d="M240 126h132v-290h-288v136h146q6 2 8 5.5t2 5.5v143zM74 -8l-7 -2l-3 -7v-157l3 -6l7 -3l308 -1q6 2 8 5.5t2 5.5v309l-3 7q-5 3 -7 3h-152l-7 -3q-3 -5 -3 -7v-144h-146z" />
    <glyph glyph-name="hyphen" unicode="-" 
d="M832 280v-136h-748v136h748zM67 297q-3 -5 -3 -7v-156l3 -7l7 -3h768l7 3l3 7v156l-3 7q-5 3 -7 3h-768z" />
    <glyph glyph-name="period" unicode="." 
d="M84 -28h136v-136h-136v136zM67 -180l7 -3l156 -1q6 2 8 5.5t2 5.5v155l-3 8q-5 3 -7 3l-156 -1l-7 -2l-3 -7v-157z" />
    <glyph glyph-name="slash" unicode="/" 
d="M84 -164v444h606l7 3l3 7v298h132v-444h-600l-7 -3q-3 -5 -3 -7v-298h-138zM239 -180q3 5 3 7v297h600l7 3l3 7v464l-3 7q-5 3 -7 3h-152l-7 -3q-3 -5 -3 -7v-298h-606l-7 -3q-3 -5 -3 -7v-464l3 -6l7 -3l158 -1q6 2 7 4z" />
    <glyph glyph-name="zero" unicode="0" 
d="M832 588v-752h-748v752h748zM690 -28q6 2 8 5.5t2 5.5v459l-3 7q-5 3 -7 3h-460l-7 -3q-3 -5 -3 -7v-460l3 -6l7 -3zM392 280h132v-136h-132v136zM375 127l7 -3h152l7 3l3 7v156l-3 7q-5 3 -7 3h-152l-7 -3q-3 -5 -3 -7v-156zM240 432h440v-440h-440v440zM67 605
q-3 -5 -3 -7v-772l3 -6l7 -3l768 -1q6 2 8 5.5t2 5.5v771l-3 7q-5 3 -7 3h-768z" />
    <glyph glyph-name="one" unicode="1" 
d="M84 588h440v-606l3 -6l7 -3l298 -1v-136h-748v136h298q6 2 8 5.5t2 5.5v459l-3 7q-5 3 -7 3h-298v136zM67 435l7 -3h298v-440h-298l-7 -2l-3 -7v-157l3 -6l7 -3l768 -1q6 2 8 5.5t2 5.5v155l-3 8q-5 3 -7 3l-298 -1v606l-3 7q-5 3 -7 3h-460l-7 -3q-3 -5 -3 -7v-156z" />
    <glyph glyph-name="two" unicode="2" 
d="M832 -28v-136h-748v136h748zM832 588v-444h-748v136h606l7 3l3 7v152l-3 7q-5 3 -7 3h-606v136h748zM67 605q-3 -5 -3 -7v-156l3 -7l7 -3h606v-132h-606l-7 -3q-3 -5 -3 -7v-156l3 -7l7 -3h768l7 3l3 7v464l-3 7q-5 3 -7 3h-768zM67 -10l-3 -7v-157l3 -6l7 -3l768 -1
q6 2 8 5.5t2 5.5v155l-3 8q-5 3 -7 3l-768 -1z" />
    <glyph glyph-name="three" unicode="3" 
d="M832 588v-752h-748v136h606q6 2 8 5.5t2 5.5v459l-3 7q-5 3 -7 3h-606v136h748zM84 280h440v-136h-440v136zM67 127l7 -3h460l7 3l3 7v156l-3 7q-5 3 -7 3h-460l-7 -3q-3 -5 -3 -7v-156zM67 605q-3 -5 -3 -7v-156l3 -7l7 -3h606v-440h-606l-7 -2l-3 -7v-157l3 -6l7 -3
l768 -1q6 2 8 5.5t2 5.5v771l-3 7q-5 3 -7 3h-768z" />
    <glyph glyph-name="four" unicode="4" 
d="M220 588v-298l3 -7l7 -3h460l7 3l3 7v298h132v-752h-132v298l-3 7q-5 3 -7 3h-606v444h136zM67 605q-3 -5 -3 -7v-464l3 -7l7 -3h606v-298l3 -6l7 -3l152 -1q6 2 8 5.5t2 5.5v771l-3 7q-5 3 -7 3h-152l-7 -3q-3 -5 -3 -7v-298h-440v298l-3 7q-5 3 -7 3h-156z" />
    <glyph glyph-name="five" unicode="5" 
d="M832 280v-444h-748v136h606q6 2 8 5.5t2 5.5v151l-3 7q-5 3 -7 3h-606v136h748zM832 588v-136h-748v136h748zM67 605q-3 -5 -3 -7v-156l3 -7l7 -3h768l7 3l3 7v156l-3 7q-5 3 -7 3h-768zM67 297q-3 -5 -3 -7v-156l3 -7l7 -3h606v-132h-606l-7 -2l-3 -7v-157l3 -6l7 -3
l768 -1q6 2 8 5.5t2 5.5v463l-3 7q-5 3 -7 3h-768z" />
    <glyph glyph-name="six" unicode="6" 
d="M832 280v-444h-748v444h748zM690 -28q6 2 8 5.5t2 5.5v151l-3 7q-5 3 -7 3h-460l-7 -3q-3 -5 -3 -7v-152l3 -6l7 -3zM832 588v-136h-748v136h748zM67 605q-3 -5 -3 -7v-156l3 -7l7 -3h768l7 3l3 7v156l-3 7q-5 3 -7 3h-768zM240 124h440v-132h-440v132zM67 297
q-3 -5 -3 -7v-464l3 -6l7 -3l768 -1q6 2 8 5.5t2 5.5v463l-3 7q-5 3 -7 3h-768z" />
    <glyph glyph-name="seven" unicode="7" 
d="M832 588v-752h-132v606l-3 7q-5 3 -7 3h-606v136h748zM67 605q-3 -5 -3 -7v-156l3 -7l7 -3h606v-606l3 -6l7 -3l152 -1q6 2 8 5.5t2 5.5v771l-3 7q-5 3 -7 3h-768z" />
    <glyph glyph-name="eight" unicode="8" 
d="M832 588v-752h-748v752h748zM690 -28q6 2 8 5.5t2 5.5v151l-3 7q-5 3 -7 3h-460l-7 -3q-3 -5 -3 -7v-152l3 -6l7 -3zM690 280l7 3l3 7v152l-3 7q-5 3 -7 3h-460l-7 -3q-3 -5 -3 -7v-152l3 -7l7 -3h460zM240 432h440v-132h-440v132zM240 124h440v-132h-440v132zM67 605
q-3 -5 -3 -7v-772l3 -6l7 -3l768 -1q6 2 8 5.5t2 5.5v771l-3 7q-5 3 -7 3h-768z" />
    <glyph glyph-name="nine" unicode="9" 
d="M832 -28v-136h-748v136h748zM832 588v-444h-748v444h748zM690 280l7 3l3 7v152l-3 7q-5 3 -7 3h-460l-7 -3q-3 -5 -3 -7v-152l3 -7l7 -3h460zM240 432h440v-132h-440v132zM67 605q-3 -5 -3 -7v-464l3 -7l7 -3h768l7 3l3 7v464l-3 7q-5 3 -7 3h-768zM67 -10l-3 -7v-157
l3 -6l7 -3l768 -1q6 2 8 5.5t2 5.5v155l-3 8q-5 3 -7 3l-768 -1z" />
    <glyph glyph-name="colon" unicode=":" 
d="M220 -27v-137h-136v137h136zM220 280v-136h-136v136h136zM67 297q-3 -5 -3 -7v-156l3 -7l7 -3h156l7 3l3 7v156l-3 7q-5 3 -7 3h-156zM67 -9l-3 -7v-158l3 -6l7 -3l156 -1q6 2 8 5.5t2 5.5v156l-3 8q-5 3 -7 3l-156 -1z" />
    <glyph glyph-name="semicolon" unicode=";" 
d="M373 -28v-135h-288v135h288zM373 279v-134h-134v134h134zM222 296q-3 -5 -3 -7v-154l3 -7l7 -3h154l7 3l3 7v154l-3 7q-5 3 -7 3h-154zM68 -10l-3 -7v-156l3 -6l7 -3l308 -1q6 2 8 5.5t2 5.5v154l-3 8q-5 3 -7 3l-308 -1z" />
    <glyph glyph-name="less" unicode="&#x3c;" 
d="M84 280h298l7 3l3 7v298h440v-136h-298l-7 -3q-3 -5 -3 -7v-460l3 -6l7 -3l298 -1v-136h-440v298l-3 7q-5 3 -7 3h-298v136zM67 127l7 -3h298v-298l3 -6l7 -3l460 -1q6 2 8 5.5t2 5.5v155l-3 8q-5 3 -7 3l-298 -1v440h298l7 3l3 7v156l-3 7q-5 3 -7 3h-460l-7 -3
q-3 -5 -3 -7v-298h-298l-7 -3q-3 -5 -3 -7v-156z" />
    <glyph glyph-name="equal" unicode="=" 
d="M832 127v-136h-748v136h748zM832 434v-136h-748v136h748zM67 451q-3 -5 -3 -7v-156l3 -7l7 -3h768l7 3l3 7v156l-3 7q-5 3 -7 3h-768zM67 144q-3 -5 -3 -7v-156l3 -6l7 -3l768 -1q6 2 8 5.5t2 5.5v155l-3 7q-5 3 -7 3h-768z" />
    <glyph glyph-name="greater" unicode="&#x3e;" 
d="M834 144h-298l-7 -3q-3 -5 -3 -7v-298h-440v136h298q6 2 8 5.5t2 5.5v459l-3 7q-5 3 -7 3h-298v136h440v-298l3 -7l7 -3h298v-136zM851 297q-5 3 -7 3h-298v298l-3 7q-5 3 -7 3h-460l-7 -3q-3 -5 -3 -7v-156l3 -7l7 -3h298v-440h-298l-7 -2l-3 -7v-157l3 -6l7 -3l460 -1
q6 2 8 5.5t2 5.5v297h298l7 3l3 7v156z" />
    <glyph glyph-name="question" unicode="?" 
d="M834 -29v-134h-133v134h133zM85 590h750v-440h-140v295l-3 7q-5 3 -7 3h-600v135zM68 438l7 -3h600v-295l3 -7l7 -3h160l7 3l3 7v460l-3 7q-5 3 -7 3h-770l-7 -3q-3 -5 -3 -7v-155zM684 -11l-3 -7v-155l3 -6l7 -3l153 -1q6 2 8 5.5t2 5.5v153l-3 8q-5 3 -7 3l-153 -1z
" />
    <glyph glyph-name="at" unicode="@" 
d="M85 -8v598h748v-748h-442v439h296l7 3l3 7v150l-3 7q-5 3 -7 3h-462l-7 -3q-3 -5 -3 -7v-449h-130zM691 -28q6 2 8 5.5t2 5.5v153l-3 7q-5 3 -7 3h-154l-7 -3q-3 -5 -3 -7v-154l3 -6l7 -3zM547 126h134v-134h-134v134zM232 -24q3 5 3 7v448h442v-130h-296l-7 -3
q-3 -5 -3 -7v-459l3 -6l7 -3l462 -1q6 2 8 5.5t2 5.5v767l-3 7q-5 3 -7 3h-768l-7 -3q-3 -5 -3 -7v-618l3 -6l7 -3l150 -1q6 2 7 4z" />
    <glyph glyph-name="A" unicode="A" 
d="M84 588h748v-752h-748v444h606l7 3l3 7v152l-3 7q-5 3 -7 3h-606v136zM220 -18l3 -6l7 -3l460 -1q6 2 8 5.5t2 5.5v151l-3 7q-5 3 -7 3h-460l-7 -3q-3 -5 -3 -7v-152zM680 124v-132h-440v132h440zM67 435l7 -3h606v-132h-606l-7 -3q-3 -5 -3 -7v-464l3 -6l7 -3l768 -1
q6 2 8 5.5t2 5.5v771l-3 7q-5 3 -7 3h-768l-7 -3q-3 -5 -3 -7v-156z" />
    <glyph glyph-name="B" unicode="B" 
d="M220 588v-298l3 -7l7 -3h602v-444h-748v752h136zM690 -28q6 2 8 5.5t2 5.5v151l-3 7q-5 3 -7 3h-460l-7 -3q-3 -5 -3 -7v-152l3 -6l7 -3zM240 124h440v-132h-440v132zM67 605q-3 -5 -3 -7v-772l3 -6l7 -3l768 -1q6 2 8 5.5t2 5.5v463l-3 7q-5 3 -7 3h-602v298l-3 7
q-5 3 -7 3h-156z" />
    <glyph glyph-name="C" unicode="C" 
d="M832 588v-136h-602l-7 -3q-3 -5 -3 -7v-460l3 -6l7 -3l602 -1v-136h-748v752h748zM67 605q-3 -5 -3 -7v-772l3 -6l7 -3l768 -1q6 2 8 5.5t2 5.5v155l-3 8q-5 3 -7 3l-602 -1v440h602l7 3l3 7v156l-3 7q-5 3 -7 3h-768z" />
    <glyph glyph-name="D" unicode="D" 
d="M832 588v-752h-748v444h606l7 3l3 7v298h132zM690 -28q6 2 8 5.5t2 5.5v151l-3 7q-5 3 -7 3h-460l-7 -3q-3 -5 -3 -7v-152l3 -6l7 -3zM240 124h440v-132h-440v132zM683 605q-3 -5 -3 -7v-298h-606l-7 -3q-3 -5 -3 -7v-464l3 -6l7 -3l768 -1q6 2 8 5.5t2 5.5v771l-3 7
q-5 3 -7 3h-152z" />
    <glyph glyph-name="E" unicode="E" 
d="M832 -30v-136h-748v136h748zM832 278v-136h-748v136h748zM832 588v-136h-748v136h748zM67 605q-3 -5 -3 -7v-156l3 -7l7 -3h768l7 3l3 7v156l-3 7q-5 3 -7 3h-768zM67 295q-3 -5 -3 -7v-156l3 -7l7 -3h768l7 3l3 7v156l-3 7q-5 3 -7 3h-768zM67 -12l-3 -7v-157l3 -6l7 -3
l768 -1q6 2 8 5.5t2 5.5v155l-3 8q-5 3 -7 3l-768 -1z" />
    <glyph glyph-name="F" unicode="F" 
d="M832 280v-136h-602l-7 -3q-3 -5 -3 -7v-298h-136v444h748zM832 588v-136h-748v136h748zM67 605q-3 -5 -3 -7v-156l3 -7l7 -3h768l7 3l3 7v156l-3 7q-5 3 -7 3h-768zM67 297q-3 -5 -3 -7v-464l3 -6l7 -3l156 -1q6 2 8 5.5t2 5.5v297h602l7 3l3 7v156l-3 7q-5 3 -7 3h-768z
" />
    <glyph glyph-name="G" unicode="G" 
d="M832 452h-602l-7 -3q-3 -5 -3 -7v-460l3 -6l7 -3l460 -1q6 2 8 5.5t2 5.5v297h132v-444h-748v752h748v-136zM849 605q-5 3 -7 3h-768l-7 -3q-3 -5 -3 -7v-772l3 -6l7 -3l768 -1q6 2 8 5.5t2 5.5v463l-3 7q-5 3 -7 3h-152l-7 -3q-3 -5 -3 -7v-298h-440v440h602l7 3l3 7
v156z" />
    <glyph glyph-name="H" unicode="H" 
d="M220 588v-298l3 -7l7 -3h460l7 3l3 7v298h132v-752h-132v298l-3 7q-5 3 -7 3h-460l-7 -3q-3 -5 -3 -7v-298h-136v752h136zM67 605q-3 -5 -3 -7v-772l3 -6l7 -3l156 -1q6 2 8 5.5t2 5.5v297h440v-298l3 -6l7 -3l152 -1q6 2 8 5.5t2 5.5v771l-3 7q-5 3 -7 3h-152l-7 -3
q-3 -5 -3 -7v-298h-440v298l-3 7q-5 3 -7 3h-156z" />
    <glyph glyph-name="I" unicode="I" 
d="M524 588v-606l3 -6l7 -3l296 -1v-136h-746v136h298q6 2 8 5.5t2 5.5v605h132zM375 605q-3 -5 -3 -7v-606h-298l-7 -2l-3 -7v-157l3 -6l7 -3l766 -1q6 2 8 5.5t2 5.5v155l-3 8q-5 3 -7 3l-296 -1v606l-3 7q-5 3 -7 3h-152z" />
    <glyph glyph-name="J" unicode="J" 
d="M700 588h132v-752h-748v136h606q6 2 8 5.5t2 5.5v605zM74 -8l-7 -2l-3 -7v-157l3 -6l7 -3l768 -1q6 2 8 5.5t2 5.5v771l-3 7q-5 3 -7 3h-152l-7 -3q-3 -5 -3 -7v-606h-606z" />
    <glyph glyph-name="K" unicode="K" 
d="M215 590v-295l3 -7l7 -3h305l7 3l3 7v295h135v-295l3 -7l7 -3h150v-450h-140v300l-3 7q-5 3 -7 3h-460l-7 -3q-3 -5 -3 -7v-300h-130v755h130zM68 607q-3 -5 -3 -7v-775l3 -6l7 -3l150 -1q6 2 8 5.5t2 5.5v299h440v-300l3 -6l7 -3l160 -1q6 2 8 5.5t2 5.5v469l-3 7
q-5 3 -7 3h-150v295l-3 7q-5 3 -7 3h-155l-7 -3q-3 -5 -3 -7v-295h-285v295l-3 7q-5 3 -7 3h-150z" />
    <glyph glyph-name="L" unicode="L" 
d="M215 590v-605l3 -6l7 -3l610 -1v-140h-750v755h130zM68 607q-3 -5 -3 -7v-775l3 -6l7 -3l770 -1q6 2 8 5.5t2 5.5v159l-3 8q-5 3 -7 3l-610 -1v605l-3 7q-5 3 -7 3h-150z" />
    <glyph glyph-name="M" unicode="M" 
d="M85 -165v755h750v-750h-140v600l-3 7q-5 3 -7 3h-460l-7 -3q-3 -5 -3 -7v-605h-130zM395 -165v440h130v-440h-130zM542 -181q3 5 3 7v459l-3 7q-5 3 -7 3h-150l-7 -3q-3 -5 -3 -7v-460l3 -6l7 -3l150 -1q6 2 7 4zM232 -181q3 5 3 7v604h440v-600l3 -6l7 -3l160 -1
q6 2 8 5.5t2 5.5v769l-3 7q-5 3 -7 3h-770l-7 -3q-3 -5 -3 -7v-775l3 -6l7 -3l150 -1q6 2 7 4z" />
    <glyph glyph-name="N" unicode="N" 
d="M85 -170v755h750v-750h-140v600l-3 7q-5 3 -7 3h-460l-7 -3q-3 -5 -3 -7v-605h-130zM232 -186q3 5 3 7v604h440v-600l3 -6l7 -3l160 -1q6 2 8 5.5t2 5.5v769l-3 7q-5 3 -7 3h-770l-7 -3q-3 -5 -3 -7v-775l3 -6l7 -3l150 -1q6 2 7 4z" />
    <glyph glyph-name="O" unicode="O" 
d="M832 588v-752h-748v752h748zM690 -28q6 2 8 5.5t2 5.5v459l-3 7q-5 3 -7 3h-460l-7 -3q-3 -5 -3 -7v-460l3 -6l7 -3zM240 432h440v-440h-440v440zM67 605q-3 -5 -3 -7v-772l3 -6l7 -3l768 -1q6 2 8 5.5t2 5.5v771l-3 7q-5 3 -7 3h-768z" />
    <glyph glyph-name="P" unicode="P" 
d="M835 590v-445h-610l-7 -3q-3 -5 -3 -7v-300h-130v755h750zM215 295l3 -7l7 -3h460l7 3l3 7v145l-3 7q-5 3 -7 3h-460l-7 -3q-3 -5 -3 -7v-145zM675 430v-125h-440v125h440zM68 607q-3 -5 -3 -7v-775l3 -6l7 -3l150 -1q6 2 8 5.5t2 5.5v299h610l7 3l3 7v465l-3 7
q-5 3 -7 3h-770z" />
    <glyph glyph-name="Q" unicode="Q" 
d="M525 590v-450l3 -7l7 -3h150l7 3l3 7v450h140v-600h-450l-7 -2l-3 -7v-146h-140v145l-3 8q-5 3 -7 3l-140 -1v600h440zM215 140l3 -7l7 -3h160l7 3l3 7v300l-3 7q-5 3 -7 3h-160l-7 -3q-3 -5 -3 -7v-300zM375 430v-280h-140v280h140zM68 607q-3 -5 -3 -7v-620l3 -6l7 -3
l140 -1v-145l3 -6l7 -3l160 -1q6 2 8 5.5t2 5.5v144h450q6 2 8 5.5t2 5.5v619l-3 7q-5 3 -7 3h-160l-7 -3q-3 -5 -3 -7v-450h-130v450l-3 7q-5 3 -7 3h-460z" />
    <glyph glyph-name="R" unicode="R" 
d="M835 590v-140h-610l-7 -3q-3 -5 -3 -7v-605h-130v755h750zM68 607q-3 -5 -3 -7v-775l3 -6l7 -3l150 -1q6 2 8 5.5t2 5.5v604h610l7 3l3 7v160l-3 7q-5 3 -7 3h-770z" />
    <glyph glyph-name="S" unicode="S" 
d="M695 280h145v-445h-755v140h600q6 2 8 5.5t2 5.5v294zM835 590v-140h-610l-7 -3q-3 -5 -3 -7v-295h-130v445h750zM68 607q-3 -5 -3 -7v-465l3 -7l7 -3h150l7 3l3 7v295h610l7 3l3 7v160l-3 7q-5 3 -7 3h-770zM75 -5l-7 -2l-3 -7v-161l3 -6l7 -3l775 -1q6 2 8 5.5t2 5.5
v464l-3 7q-5 3 -7 3h-165l-7 -3q-3 -5 -3 -7v-295h-600z" />
    <glyph glyph-name="T" unicode="T" 
d="M85 590h750v-140h-300l-7 -3q-3 -5 -3 -7v-605h-135v605l-3 7q-5 3 -7 3h-295v140zM68 433l7 -3h295v-605l3 -6l7 -3l155 -1q6 2 8 5.5t2 5.5v604h300l7 3l3 7v160l-3 7q-5 3 -7 3h-770l-7 -3q-3 -5 -3 -7v-160z" />
    <glyph glyph-name="U" unicode="U" 
d="M215 590v-605l3 -6l7 -3l460 -1q6 2 8 5.5t2 5.5v599h140v-750h-750v755h130zM68 607q-3 -5 -3 -7v-775l3 -6l7 -3l770 -1q6 2 8 5.5t2 5.5v769l-3 7q-5 3 -7 3h-160l-7 -3q-3 -5 -3 -7v-600h-440v605l-3 7q-5 3 -7 3h-150z" />
    <glyph glyph-name="V" unicode="V" 
d="M215 590v-605l3 -6l7 -3l160 -1q6 2 8 5.5t2 5.5v604h445v-135h-305l-7 -3q-3 -5 -3 -7v-610h-440v755h130zM68 607q-3 -5 -3 -7v-775l3 -6l7 -3l460 -1q6 2 8 5.5t2 5.5v609h305l7 3l3 7v155l-3 7q-5 3 -7 3h-465l-7 -3q-3 -5 -3 -7v-605h-140v605l-3 7q-5 3 -7 3h-150z
" />
    <glyph glyph-name="W" unicode="W" 
d="M215 590v-605l3 -6l7 -3l460 -1q6 2 8 5.5t2 5.5v599h140v-750h-750v755h130zM525 590v-440h-130v440h130zM378 607q-3 -5 -3 -7v-460l3 -7l7 -3h150l7 3l3 7v460l-3 7q-5 3 -7 3h-150zM68 607q-3 -5 -3 -7v-775l3 -6l7 -3l770 -1q6 2 8 5.5t2 5.5v769l-3 7q-5 3 -7 3
h-160l-7 -3q-3 -5 -3 -7v-600h-440v605l-3 7q-5 3 -7 3h-150z" />
    <glyph glyph-name="X" unicode="X" 
d="M525 590v-145l3 -7l7 -3h300v-135h-300l-7 -3q-3 -5 -3 -7v-305l3 -6l7 -3l300 -1v-140h-440v145l-3 8q-5 3 -7 3l-300 -1v140h300l7 3l3 7v300l-3 7q-5 3 -7 3h-300v140h440zM68 607q-3 -5 -3 -7v-160l3 -7l7 -3h300v-280h-300l-7 -3q-3 -5 -3 -7v-160l3 -6l7 -3l300 -1
v-145l3 -6l7 -3l460 -1q6 2 8 5.5t2 5.5v159l-3 8q-5 3 -7 3l-300 -1v285h300l7 3l3 7v155l-3 7q-5 3 -7 3h-300v145l-3 7q-5 3 -7 3h-460z" />
    <glyph glyph-name="Y" unicode="Y" 
d="M215 590v-295l3 -7l7 -3h460l7 3l3 7v295h135v-445h-295l-7 -3q-3 -5 -3 -7v-300h-135v300l-3 7q-5 3 -7 3h-295v445h130zM68 607q-3 -5 -3 -7v-465l3 -7l7 -3h295v-300l3 -6l7 -3l155 -1q6 2 8 5.5t2 5.5v299h295l7 3l3 7v465l-3 7q-5 3 -7 3h-155l-7 -3q-3 -5 -3 -7
v-295h-440v295l-3 7q-5 3 -7 3h-150z" />
    <glyph glyph-name="Z" unicode="Z" 
d="M525 590v-605l3 -6l7 -3l300 -1v-140h-440v605l-3 7q-5 3 -7 3h-300v140h440zM68 607q-3 -5 -3 -7v-160l3 -7l7 -3h300v-605l3 -6l7 -3l460 -1q6 2 8 5.5t2 5.5v159l-3 8q-5 3 -7 3l-300 -1v605l-3 7q-5 3 -7 3h-460z" />
    <glyph glyph-name="bracketleft" unicode="[" 
d="M835 590v-290h-140v140l-3 7q-5 3 -7 3h-460l-7 -3q-3 -5 -3 -7v-455l3 -6l7 -3l300 -1v-140h-440v755h750zM68 607q-3 -5 -3 -7v-775l3 -6l7 -3l460 -1q6 2 8 5.5t2 5.5v159l-3 8q-5 3 -7 3l-300 -1v435h440v-140l3 -7l7 -3h160l7 3l3 7v310l-3 7q-5 3 -7 3h-770z" />
    <glyph glyph-name="backslash" unicode="\" 
d="M215 590v-295l3 -7l7 -3h610v-450h-140v300l-3 7q-5 3 -7 3h-600v445h130zM68 607q-3 -5 -3 -7v-465l3 -7l7 -3h600v-300l3 -6l7 -3l160 -1q6 2 8 5.5t2 5.5v469l-3 7q-5 3 -7 3h-610v295l-3 7q-5 3 -7 3h-150z" />
    <glyph glyph-name="bracketright" unicode="]" 
d="M831 590v-755h-440v140h300q6 2 8 5.5t2 5.5v454l-3 7q-5 3 -7 3h-460l-7 -3q-3 -5 -3 -7v-140h-140v290h750zM64 607q-3 -5 -3 -7v-310l3 -7l7 -3h160l7 3l3 7v140h440v-435h-300l-7 -2l-3 -7v-161l3 -6l7 -3l460 -1q6 2 8 5.5t2 5.5v774l-3 7q-5 3 -7 3h-770z" />
    <glyph glyph-name="asciicircum" unicode="^" 
d="M395 590h440v-140h-300l-7 -3q-3 -5 -3 -7v-145l3 -7l7 -3h300v-140h-300l-7 -3q-3 -5 -3 -7v-150l3 -6l7 -3l300 -1v-140h-440v300l-3 7q-5 3 -7 3h-300v140h300l7 3l3 7v295zM75 305l-7 -3q-3 -5 -3 -7v-160l3 -7l7 -3h300v-300l3 -6l7 -3l460 -1q6 2 8 5.5t2 5.5v159
l-3 8q-5 3 -7 3l-300 -1v130h300l7 3l3 7v160l-3 7q-5 3 -7 3h-300v125h300l7 3l3 7v160l-3 7q-5 3 -7 3h-460l-7 -3q-3 -5 -3 -7v-295h-300z" />
    <glyph glyph-name="underscore" unicode="_" 
d="M835 -25v-140h-750v140h750zM68 -7l-3 -7v-161l3 -6l7 -3l770 -1q6 2 8 5.5t2 5.5v159l-3 8q-5 3 -7 3l-770 -1z" />
    <glyph glyph-name="grave" unicode="`" 
d="M85 590h280v-290h-130v145l-3 7q-5 3 -7 3h-140v135zM68 438l7 -3h140v-145l3 -7l7 -3h150l7 3l3 7v310l-3 7q-5 3 -7 3h-300l-7 -3q-3 -5 -3 -7v-155z" />
    <glyph glyph-name="a" unicode="a" 
d="M84 588h748v-752h-748v444h606l7 3l3 7v152l-3 7q-5 3 -7 3h-606v136zM220 -18l3 -6l7 -3l460 -1q6 2 8 5.5t2 5.5v151l-3 7q-5 3 -7 3h-460l-7 -3q-3 -5 -3 -7v-152zM680 124v-132h-440v132h440zM67 435l7 -3h606v-132h-606l-7 -3q-3 -5 -3 -7v-464l3 -6l7 -3l768 -1
q6 2 8 5.5t2 5.5v771l-3 7q-5 3 -7 3h-768l-7 -3q-3 -5 -3 -7v-156z" />
    <glyph glyph-name="b" unicode="b" 
d="M220 588v-298l3 -7l7 -3h602v-444h-748v752h136zM690 -28q6 2 8 5.5t2 5.5v151l-3 7q-5 3 -7 3h-460l-7 -3q-3 -5 -3 -7v-152l3 -6l7 -3zM240 124h440v-132h-440v132zM67 605q-3 -5 -3 -7v-772l3 -6l7 -3l768 -1q6 2 8 5.5t2 5.5v463l-3 7q-5 3 -7 3h-602v298l-3 7
q-5 3 -7 3h-156z" />
    <glyph glyph-name="c" unicode="c" 
d="M832 588v-136h-602l-7 -3q-3 -5 -3 -7v-460l3 -6l7 -3l602 -1v-136h-748v752h748zM67 605q-3 -5 -3 -7v-772l3 -6l7 -3l768 -1q6 2 8 5.5t2 5.5v155l-3 8q-5 3 -7 3l-602 -1v440h602l7 3l3 7v156l-3 7q-5 3 -7 3h-768z" />
    <glyph glyph-name="d" unicode="d" 
d="M832 588v-752h-748v444h606l7 3l3 7v298h132zM690 -28q6 2 8 5.5t2 5.5v151l-3 7q-5 3 -7 3h-460l-7 -3q-3 -5 -3 -7v-152l3 -6l7 -3zM240 124h440v-132h-440v132zM683 605q-3 -5 -3 -7v-298h-606l-7 -3q-3 -5 -3 -7v-464l3 -6l7 -3l768 -1q6 2 8 5.5t2 5.5v771l-3 7
q-5 3 -7 3h-152z" />
    <glyph glyph-name="e" unicode="e" 
d="M832 -30v-136h-748v136h748zM832 278v-136h-748v136h748zM832 588v-136h-748v136h748zM67 605q-3 -5 -3 -7v-156l3 -7l7 -3h768l7 3l3 7v156l-3 7q-5 3 -7 3h-768zM67 295q-3 -5 -3 -7v-156l3 -7l7 -3h768l7 3l3 7v156l-3 7q-5 3 -7 3h-768zM67 -12l-3 -7v-157l3 -6l7 -3
l768 -1q6 2 8 5.5t2 5.5v155l-3 8q-5 3 -7 3l-768 -1z" />
    <glyph glyph-name="f" unicode="f" 
d="M832 280v-136h-602l-7 -3q-3 -5 -3 -7v-298h-136v444h748zM832 588v-136h-748v136h748zM67 605q-3 -5 -3 -7v-156l3 -7l7 -3h768l7 3l3 7v156l-3 7q-5 3 -7 3h-768zM67 297q-3 -5 -3 -7v-464l3 -6l7 -3l156 -1q6 2 8 5.5t2 5.5v297h602l7 3l3 7v156l-3 7q-5 3 -7 3h-768z
" />
    <glyph glyph-name="g" unicode="g" 
d="M832 452h-602l-7 -3q-3 -5 -3 -7v-460l3 -6l7 -3l460 -1q6 2 8 5.5t2 5.5v297h132v-444h-748v752h748v-136zM849 605q-5 3 -7 3h-768l-7 -3q-3 -5 -3 -7v-772l3 -6l7 -3l768 -1q6 2 8 5.5t2 5.5v463l-3 7q-5 3 -7 3h-152l-7 -3q-3 -5 -3 -7v-298h-440v440h602l7 3l3 7
v156z" />
    <glyph glyph-name="h" unicode="h" 
d="M220 588v-298l3 -7l7 -3h460l7 3l3 7v298h132v-752h-132v298l-3 7q-5 3 -7 3h-460l-7 -3q-3 -5 -3 -7v-298h-136v752h136zM67 605q-3 -5 -3 -7v-772l3 -6l7 -3l156 -1q6 2 8 5.5t2 5.5v297h440v-298l3 -6l7 -3l152 -1q6 2 8 5.5t2 5.5v771l-3 7q-5 3 -7 3h-152l-7 -3
q-3 -5 -3 -7v-298h-440v298l-3 7q-5 3 -7 3h-156z" />
    <glyph glyph-name="i" unicode="i" 
d="M524 588v-606l3 -6l7 -3l296 -1v-136h-746v136h298q6 2 8 5.5t2 5.5v605h132zM375 605q-3 -5 -3 -7v-606h-298l-7 -2l-3 -7v-157l3 -6l7 -3l766 -1q6 2 8 5.5t2 5.5v155l-3 8q-5 3 -7 3l-296 -1v606l-3 7q-5 3 -7 3h-152z" />
    <glyph glyph-name="j" unicode="j" 
d="M700 588h132v-752h-748v136h606q6 2 8 5.5t2 5.5v605zM74 -8l-7 -2l-3 -7v-157l3 -6l7 -3l768 -1q6 2 8 5.5t2 5.5v771l-3 7q-5 3 -7 3h-152l-7 -3q-3 -5 -3 -7v-606h-606z" />
    <glyph glyph-name="k" unicode="k" 
d="M215 590v-295l3 -7l7 -3h305l7 3l3 7v295h135v-295l3 -7l7 -3h150v-450h-140v300l-3 7q-5 3 -7 3h-460l-7 -3q-3 -5 -3 -7v-300h-130v755h130zM68 607q-3 -5 -3 -7v-775l3 -6l7 -3l150 -1q6 2 8 5.5t2 5.5v299h440v-300l3 -6l7 -3l160 -1q6 2 8 5.5t2 5.5v469l-3 7
q-5 3 -7 3h-150v295l-3 7q-5 3 -7 3h-155l-7 -3q-3 -5 -3 -7v-295h-285v295l-3 7q-5 3 -7 3h-150z" />
    <glyph glyph-name="l" unicode="l" 
d="M215 590v-605l3 -6l7 -3l610 -1v-140h-750v755h130zM68 607q-3 -5 -3 -7v-775l3 -6l7 -3l770 -1q6 2 8 5.5t2 5.5v159l-3 8q-5 3 -7 3l-610 -1v605l-3 7q-5 3 -7 3h-150z" />
    <glyph glyph-name="m" unicode="m" 
d="M85 -165v755h750v-750h-140v600l-3 7q-5 3 -7 3h-460l-7 -3q-3 -5 -3 -7v-605h-130zM395 -165v440h130v-440h-130zM542 -181q3 5 3 7v459l-3 7q-5 3 -7 3h-150l-7 -3q-3 -5 -3 -7v-460l3 -6l7 -3l150 -1q6 2 7 4zM232 -181q3 5 3 7v604h440v-600l3 -6l7 -3l160 -1
q6 2 8 5.5t2 5.5v769l-3 7q-5 3 -7 3h-770l-7 -3q-3 -5 -3 -7v-775l3 -6l7 -3l150 -1q6 2 7 4z" />
    <glyph glyph-name="n" unicode="n" 
d="M85 -170v755h750v-750h-140v600l-3 7q-5 3 -7 3h-460l-7 -3q-3 -5 -3 -7v-605h-130zM232 -186q3 5 3 7v604h440v-600l3 -6l7 -3l160 -1q6 2 8 5.5t2 5.5v769l-3 7q-5 3 -7 3h-770l-7 -3q-3 -5 -3 -7v-775l3 -6l7 -3l150 -1q6 2 7 4z" />
    <glyph glyph-name="o" unicode="o" 
d="M834 590v-752h-748v752h748zM214 -16l3 -6l7 -3l468 -1q6 2 8 5.5t2 5.5v459l-3 7q-5 3 -7 3h-468l-7 -3q-3 -5 -3 -7v-460zM682 434v-440h-448v440h448zM69 607q-3 -5 -3 -7v-772l3 -6l7 -3l768 -1q6 2 8 5.5t2 5.5v771l-3 7q-5 3 -7 3h-768z" />
    <glyph glyph-name="p" unicode="p" 
d="M835 590v-445h-610l-7 -3q-3 -5 -3 -7v-300h-130v755h750zM215 295l3 -7l7 -3h460l7 3l3 7v145l-3 7q-5 3 -7 3h-460l-7 -3q-3 -5 -3 -7v-145zM675 430v-125h-440v125h440zM68 607q-3 -5 -3 -7v-775l3 -6l7 -3l150 -1q6 2 8 5.5t2 5.5v299h610l7 3l3 7v465l-3 7
q-5 3 -7 3h-770z" />
    <glyph glyph-name="q" unicode="q" 
d="M525 590v-450l3 -7l7 -3h150l7 3l3 7v450h140v-600h-450l-7 -2l-3 -7v-146h-140v145l-3 8q-5 3 -7 3l-140 -1v600h440zM215 140l3 -7l7 -3h160l7 3l3 7v300l-3 7q-5 3 -7 3h-160l-7 -3q-3 -5 -3 -7v-300zM375 430v-280h-140v280h140zM68 607q-3 -5 -3 -7v-620l3 -6l7 -3
l140 -1v-145l3 -6l7 -3l160 -1q6 2 8 5.5t2 5.5v144h450q6 2 8 5.5t2 5.5v619l-3 7q-5 3 -7 3h-160l-7 -3q-3 -5 -3 -7v-450h-130v450l-3 7q-5 3 -7 3h-460z" />
    <glyph glyph-name="r" unicode="r" 
d="M835 590v-140h-610l-7 -3q-3 -5 -3 -7v-605h-130v755h750zM68 607q-3 -5 -3 -7v-775l3 -6l7 -3l150 -1q6 2 8 5.5t2 5.5v604h610l7 3l3 7v160l-3 7q-5 3 -7 3h-770z" />
    <glyph glyph-name="s" unicode="s" 
d="M695 280h145v-445h-755v140h600q6 2 8 5.5t2 5.5v294zM835 590v-140h-610l-7 -3q-3 -5 -3 -7v-295h-130v445h750zM68 607q-3 -5 -3 -7v-465l3 -7l7 -3h150l7 3l3 7v295h610l7 3l3 7v160l-3 7q-5 3 -7 3h-770zM75 -5l-7 -2l-3 -7v-161l3 -6l7 -3l775 -1q6 2 8 5.5t2 5.5
v464l-3 7q-5 3 -7 3h-165l-7 -3q-3 -5 -3 -7v-295h-600z" />
    <glyph glyph-name="t" unicode="t" 
d="M85 590h750v-140h-300l-7 -3q-3 -5 -3 -7v-605h-135v605l-3 7q-5 3 -7 3h-295v140zM68 433l7 -3h295v-605l3 -6l7 -3l155 -1q6 2 8 5.5t2 5.5v604h300l7 3l3 7v160l-3 7q-5 3 -7 3h-770l-7 -3q-3 -5 -3 -7v-160z" />
    <glyph glyph-name="u" unicode="u" 
d="M215 590v-605l3 -6l7 -3l460 -1q6 2 8 5.5t2 5.5v599h140v-750h-750v755h130zM68 607q-3 -5 -3 -7v-775l3 -6l7 -3l770 -1q6 2 8 5.5t2 5.5v769l-3 7q-5 3 -7 3h-160l-7 -3q-3 -5 -3 -7v-600h-440v605l-3 7q-5 3 -7 3h-150z" />
    <glyph glyph-name="v" unicode="v" 
d="M215 590v-605l3 -6l7 -3l160 -1q6 2 8 5.5t2 5.5v604h445v-135h-305l-7 -3q-3 -5 -3 -7v-610h-440v755h130zM68 607q-3 -5 -3 -7v-775l3 -6l7 -3l460 -1q6 2 8 5.5t2 5.5v609h305l7 3l3 7v155l-3 7q-5 3 -7 3h-465l-7 -3q-3 -5 -3 -7v-605h-140v605l-3 7q-5 3 -7 3h-150z
" />
    <glyph glyph-name="w" unicode="w" 
d="M215 590v-605l3 -6l7 -3l460 -1q6 2 8 5.5t2 5.5v599h140v-750h-750v755h130zM525 590v-440h-130v440h130zM378 607q-3 -5 -3 -7v-460l3 -7l7 -3h150l7 3l3 7v460l-3 7q-5 3 -7 3h-150zM68 607q-3 -5 -3 -7v-775l3 -6l7 -3l770 -1q6 2 8 5.5t2 5.5v769l-3 7q-5 3 -7 3
h-160l-7 -3q-3 -5 -3 -7v-600h-440v605l-3 7q-5 3 -7 3h-150z" />
    <glyph glyph-name="x" unicode="x" 
d="M525 590v-145l3 -7l7 -3h300v-135h-300l-7 -3q-3 -5 -3 -7v-305l3 -6l7 -3l300 -1v-140h-440v145l-3 8q-5 3 -7 3l-300 -1v140h300l7 3l3 7v300l-3 7q-5 3 -7 3h-300v140h440zM68 607q-3 -5 -3 -7v-160l3 -7l7 -3h300v-280h-300l-7 -3q-3 -5 -3 -7v-160l3 -6l7 -3l300 -1
v-145l3 -6l7 -3l460 -1q6 2 8 5.5t2 5.5v159l-3 8q-5 3 -7 3l-300 -1v285h300l7 3l3 7v155l-3 7q-5 3 -7 3h-300v145l-3 7q-5 3 -7 3h-460z" />
    <glyph glyph-name="y" unicode="y" 
d="M215 590v-295l3 -7l7 -3h460l7 3l3 7v295h135v-445h-295l-7 -3q-3 -5 -3 -7v-300h-135v300l-3 7q-5 3 -7 3h-295v445h130zM68 607q-3 -5 -3 -7v-465l3 -7l7 -3h295v-300l3 -6l7 -3l155 -1q6 2 8 5.5t2 5.5v299h295l7 3l3 7v465l-3 7q-5 3 -7 3h-155l-7 -3q-3 -5 -3 -7
v-295h-440v295l-3 7q-5 3 -7 3h-150z" />
    <glyph glyph-name="z" unicode="z" 
d="M525 590v-605l3 -6l7 -3l300 -1v-140h-440v605l-3 7q-5 3 -7 3h-300v140h440zM68 607q-3 -5 -3 -7v-160l3 -7l7 -3h300v-605l3 -6l7 -3l460 -1q6 2 8 5.5t2 5.5v159l-3 8q-5 3 -7 3l-300 -1v605l-3 7q-5 3 -7 3h-460z" />
    <glyph glyph-name="braceleft" unicode="{" 
d="M840 590v-290h-145v140l-3 7q-5 3 -7 3h-300l-7 -3q-3 -5 -3 -7v-455l3 -6l7 -3l450 -1v-140h-605v300l-3 7q-5 3 -7 3h-135v140h140l7 3l3 7v295h605zM218 607q-3 -5 -3 -7v-295h-140l-7 -3q-3 -5 -3 -7v-160l3 -7l7 -3h135v-300l3 -6l7 -3l625 -1q6 2 8 5.5t2 5.5v159
l-3 8q-5 3 -7 3l-450 -1v435h280v-140l3 -7l7 -3h165l7 3l3 7v310l-3 7q-5 3 -7 3h-625z" />
    <glyph glyph-name="bar" unicode="|" 
d="M525 590v-755h-140v755h140zM368 607q-3 -5 -3 -7v-775l3 -6l7 -3l160 -1q6 2 8 5.5t2 5.5v774l-3 7q-5 3 -7 3h-160z" />
    <glyph glyph-name="braceright" unicode="}" 
d="M683 590v-295l3 -7l7 -3h140v-140h-135l-7 -3q-3 -5 -3 -7v-300h-605v140h450q6 2 8 5.5t2 5.5v454l-3 7q-5 3 -7 3h-300l-7 -3q-3 -5 -3 -7v-140h-145v290h605zM61 607q-3 -5 -3 -7v-310l3 -7l7 -3h165l7 3l3 7v140h280v-435h-450l-7 -2l-3 -7v-161l3 -6l7 -3l625 -1
q6 2 8 5.5t2 5.5v299h135l7 3l3 7v160l-3 7q-5 3 -7 3h-140v295l-3 7q-5 3 -7 3h-625z" />
    <glyph glyph-name="asciitilde" unicode="~" 
d="M525 590v-150l3 -7l7 -3h150l7 3l3 7v150h145v-290h-445v140l-3 7q-5 3 -7 3h-160l-7 -3q-3 -5 -3 -7v-140h-130v290h440zM68 607q-3 -5 -3 -7v-310l3 -7l7 -3h150l7 3l3 7v140h140v-140l3 -7l7 -3h465l7 3l3 7v310l-3 7q-5 3 -7 3h-165l-7 -3q-3 -5 -3 -7v-150h-130v150
l-3 7q-5 3 -7 3h-460z" />
    <glyph glyph-name="quotesinglbase" unicode="&#x201a;" horiz-adv-x="248" 
d="M68 48q0 10 2 15l9 14l15 10l24 4h4q11 0 23 -5.5t20 -13.5t14.5 -23.5t6.5 -35.5q0 -15 -1 -22t-7 -22q-6 -21 -20.5 -40.5t-33.5 -36.5q-17 -18 -46 -34l28 23l26 24q18 17 27 37t9 41v4l-1 5l-3 8q-3 5 -5 6l-7 3l-7 2h-4h-4h-2l-2 -1h-1h-1h-6h-8h-7q-12 0 -18 2
l-13 7l-8 10q-3 6 -3 18v1zM52 21q5 -10 15 -18q10 -6 20 -9l23 -3l7 -1h8h6l2 1h1l2 1h2h4l3 -1h2v-1l1 -3v-4q0 -17 -7 -31.5t-23 -32.5l-35 -31l-39 -29l-4 -4v-6l2 -5l12 -15l3 -2l5 -1l5 2q33 18 61 40.5t44 45.5t25 48t9 51q0 21 -6 40.5t-19 31.5t-25.5 17.5
t-31.5 8.5h-1h-5q-18 0 -30 -4.5t-21.5 -14t-14.5 -22.5l-4 -22v-11.5t4 -15.5z" />
    <glyph glyph-name="florin" unicode="&#x192;" 
d="M675 590v-140h-140l-7 -3q-3 -5 -3 -7v-145l3 -7l7 -3h140v-140h-145l-7 -3q-3 -5 -3 -7v-150l3 -6l7 -3l305 -1v-140h-750v140h300q6 2 8 5.5t2 5.5v149l-3 7q-5 3 -7 3h-150v140h150l7 3l3 7v295h280zM378 607q-3 -5 -3 -7v-295h-150l-7 -3q-3 -5 -3 -7v-160l3 -7l7 -3
h150v-130h-300l-7 -2l-3 -7v-161l3 -6l7 -3l770 -1q6 2 8 5.5t2 5.5v159l-3 8q-5 3 -7 3l-305 -1v130h145l7 3l3 7v160l-3 7q-5 3 -7 3h-140v125h140l7 3l3 7v160l-3 7q-5 3 -7 3h-300z" />
    <glyph glyph-name="quotedblbase" unicode="&#x201e;" 
d="M84 -28h136v-136h-136v136zM67 -180l7 -3l156 -1q6 2 8 5.5t2 5.5v155l-3 8q-5 3 -7 3l-156 -1l-7 -2l-3 -7v-157z" />
    <glyph glyph-name="ellipsis" unicode="&#x2026;" 
d="M220 -25v-140h-130v140h130zM525 -25v-140h-130v140h130zM830 -25v-140h-130v140h130zM683 -7l-3 -7v-161l3 -6l7 -3l150 -1q6 2 8 5.5t2 5.5v159l-3 8q-5 3 -7 3l-150 -1zM378 -7l-3 -7v-161l3 -6l7 -3l150 -1q6 2 8 5.5t2 5.5v159l-3 8q-5 3 -7 3l-150 -1zM73 -7l-3 -7
v-161l3 -6l7 -3l150 -1q6 2 8 5.5t2 5.5v159l-3 8q-5 3 -7 3l-150 -1z" />
    <glyph glyph-name="dagger" unicode="&#x2020;" 
d="M525 590v-145l3 -7l7 -3h140v-135h-135l-7 -3q-3 -5 -3 -7v-300h-135v450l-3 7q-5 3 -7 3h-150v140h290zM218 607q-3 -5 -3 -7v-160l3 -7l7 -3h150v-450l3 -6l7 -3l155 -1q6 2 8 5.5t2 5.5v299h135l7 3l3 7v155l-3 7q-5 3 -7 3h-140v145l-3 7q-5 3 -7 3h-310z" />
    <glyph glyph-name="daggerdbl" unicode="&#x2021;" 
d="M84 -28h136v-136h-136v136zM67 -180l7 -3l156 -1q6 2 8 5.5t2 5.5v155l-3 8q-5 3 -7 3l-156 -1l-7 -2l-3 -7v-157z" />
    <glyph glyph-name="circumflex" unicode="&#x2c6;" 
d="M84 -28h136v-136h-136v136zM67 -180l7 -3l156 -1q6 2 8 5.5t2 5.5v155l-3 8q-5 3 -7 3l-156 -1l-7 -2l-3 -7v-157z" />
    <glyph glyph-name="perthousand" unicode="&#x2030;" 
d="M84 -28h136v-136h-136v136zM67 -180l7 -3l156 -1q6 2 8 5.5t2 5.5v155l-3 8q-5 3 -7 3l-156 -1l-7 -2l-3 -7v-157z" />
    <glyph glyph-name="Scaron" unicode="&#x160;" horiz-adv-x="788" 
 />
    <glyph glyph-name="guilsinglleft" unicode="&#x2039;" 
d="M84 -28h136v-136h-136v136zM67 -180l7 -3l156 -1q6 2 8 5.5t2 5.5v155l-3 8q-5 3 -7 3l-156 -1l-7 -2l-3 -7v-157z" />
    <glyph glyph-name="OE" unicode="&#x152;" 
d="M840 590v-140h-305l-7 -3q-3 -5 -3 -7v-145l3 -7l7 -3h300v-140h-300l-7 -3q-3 -5 -3 -7v-155l3 -6l7 -3l300 -1v-135h-750v755h755zM215 -20l3 -6l7 -3l160 -1q6 2 8 5.5t2 5.5v459l-3 7q-5 3 -7 3h-160l-7 -3q-3 -5 -3 -7v-460zM375 430v-440h-140v440h140zM68 607
q-3 -5 -3 -7v-775l3 -6l7 -3l770 -1q6 2 8 5.5t2 5.5v154l-3 8q-5 3 -7 3l-300 -1v135h300l7 3l3 7v160l-3 7q-5 3 -7 3h-300v125h305l7 3l3 7v160l-3 7q-5 3 -7 3h-775z" />
    <glyph glyph-name="quoteleft" unicode="&#x2018;" 
d="M525 -25v-140h-130v140h130zM830 285v-140h-740v140h740zM530 590v-140h-130v140h130zM383 607q-3 -5 -3 -7v-160l3 -7l7 -3h150l7 3l3 7v160l-3 7q-5 3 -7 3h-150zM73 302q-3 -5 -3 -7v-160l3 -7l7 -3h760l7 3l3 7v160l-3 7q-5 3 -7 3h-760zM378 -7l-3 -7v-161l3 -6
l7 -3l150 -1q6 2 8 5.5t2 5.5v159l-3 8q-5 3 -7 3l-150 -1z" />
    <glyph glyph-name="quoteright" unicode="&#x2019;" 
d="M82 296v140h145l7 3l3 7v140h130v-290h-285zM384 279l3 7v310l-3 7q-5 3 -7 3h-150l-7 -3q-3 -5 -3 -7v-140h-145l-7 -3q-3 -5 -3 -7v-160l3 -7l7 -3h305z" />
    <glyph glyph-name="quotedblleft" unicode="&#x201c;" 
d="M370 590v-140h-145l-7 -3q-3 -5 -3 -7v-140h-130v290h285zM835 590v-140h-145l-7 -3q-3 -5 -3 -7v-140h-130v290h285zM533 607q-3 -5 -3 -7v-310l3 -7l7 -3h150l7 3l3 7v140h145l7 3l3 7v160l-3 7q-5 3 -7 3h-305zM68 607q-3 -5 -3 -7v-310l3 -7l7 -3h150l7 3l3 7v140
h145l7 3l3 7v160l-3 7q-5 3 -7 3h-305z" />
    <glyph glyph-name="quotedblright" unicode="&#x201d;" 
d="M83 296v140h145l7 3l3 7v140h130v-290h-285zM548 296v140h145l7 3l3 7v140h130v-290h-285zM850 279l3 7v310l-3 7q-5 3 -7 3h-150l-7 -3q-3 -5 -3 -7v-140h-145l-7 -3q-3 -5 -3 -7v-160l3 -7l7 -3h305zM385 279l3 7v310l-3 7q-5 3 -7 3h-150l-7 -3q-3 -5 -3 -7v-140h-145
l-7 -3q-3 -5 -3 -7v-160l3 -7l7 -3h305z" />
    <glyph glyph-name="bullet" unicode="&#x2022;" 
d="M675 590v-145l3 -7l7 -3h150v-440h-150l-7 -2l-3 -7v-151h-440v145l-3 8q-5 3 -7 3l-140 -1v445h140l7 3l3 7v145h440zM218 607q-3 -5 -3 -7v-145h-140l-7 -3q-3 -5 -3 -7v-465l3 -6l7 -3l140 -1v-145l3 -6l7 -3l460 -1q6 2 8 5.5t2 5.5v149h150q6 2 8 5.5t2 5.5v459
l-3 7q-5 3 -7 3h-150v145l-3 7q-5 3 -7 3h-460z" />
    <glyph glyph-name="endash" unicode="&#x2013;" 
d="M680 285v-140h-445v140h445zM218 302q-3 -5 -3 -7v-160l3 -7l7 -3h465l7 3l3 7v160l-3 7q-5 3 -7 3h-465z" />
    <glyph glyph-name="emdash" unicode="&#x2014;" 
d="M830 285v-140h-740v140h740zM73 302q-3 -5 -3 -7v-160l3 -7l7 -3h760l7 3l3 7v160l-3 7q-5 3 -7 3h-760z" />
    <glyph glyph-name="tilde" unicode="&#x2dc;" 
d="M84 -28h136v-136h-136v136zM67 -180l7 -3l156 -1q6 2 8 5.5t2 5.5v155l-3 8q-5 3 -7 3l-156 -1l-7 -2l-3 -7v-157z" />
    <glyph glyph-name="trademark" unicode="&#x2122;" 
d="M215 590v-145l3 -7l7 -3h610v-290h-140v145l-3 7q-5 3 -7 3h-150l-7 -3q-3 -5 -3 -7v-145h-130v145l-3 7q-5 3 -7 3h-160l-7 -3q-3 -5 -3 -7v-145h-135v445h135zM63 607q-3 -5 -3 -7v-465l3 -7l7 -3h155l7 3l3 7v145h140v-145l3 -7l7 -3h150l7 3l3 7v145h130v-145l3 -7
l7 -3h160l7 3l3 7v310l-3 7q-5 3 -7 3h-610v145l-3 7q-5 3 -7 3h-155z" />
    <glyph glyph-name="scaron" unicode="&#x161;" horiz-adv-x="788" 
 />
    <glyph glyph-name="guilsinglright" unicode="&#x203a;" 
d="M84 -28h136v-136h-136v136zM67 -180l7 -3l156 -1q6 2 8 5.5t2 5.5v155l-3 8q-5 3 -7 3l-156 -1l-7 -2l-3 -7v-157z" />
    <glyph glyph-name="oe" unicode="&#x153;" 
d="M840 590v-140h-305l-7 -3q-3 -5 -3 -7v-145l3 -7l7 -3h300v-140h-300l-7 -3q-3 -5 -3 -7v-155l3 -6l7 -3l300 -1v-135h-750v755h755zM215 -20l3 -6l7 -3l160 -1q6 2 8 5.5t2 5.5v459l-3 7q-5 3 -7 3h-160l-7 -3q-3 -5 -3 -7v-460zM375 430v-440h-140v440h140zM68 607
q-3 -5 -3 -7v-775l3 -6l7 -3l770 -1q6 2 8 5.5t2 5.5v154l-3 8q-5 3 -7 3l-300 -1v135h300l7 3l3 7v160l-3 7q-5 3 -7 3h-300v125h305l7 3l3 7v160l-3 7q-5 3 -7 3h-775z" />
    <glyph glyph-name="Ydieresis" unicode="&#x178;" 
d="M84 -28h136v-136h-136v136zM67 -180l7 -3l156 -1q6 2 8 5.5t2 5.5v155l-3 8q-5 3 -7 3l-156 -1l-7 -2l-3 -7v-157z" />
    <glyph glyph-name="nonbreakingspace" unicode="&#xa0;" horiz-adv-x="278" 
 />
    <glyph glyph-name="exclamdown" unicode="&#xa1;" 
d="M215 355v-370l3 -6l7 -3l610 -1v-140h-750v520h130zM215 590v-140h-130v140h130zM68 607q-3 -5 -3 -7v-160l3 -7l7 -3h150l7 3l3 7v160l-3 7q-5 3 -7 3h-150zM68 372q-3 -5 -3 -7v-540l3 -6l7 -3l770 -1q6 2 8 5.5t2 5.5v159l-3 8q-5 3 -7 3l-610 -1v370l-3 7q-5 3 -7 3
h-150z" />
    <glyph glyph-name="cent" unicode="&#xa2;" 
d="M835 590v-140h-610l-7 -3q-3 -5 -3 -7v-455l3 -6l7 -3l610 -1v-140h-750v755h750zM680 285v-140h-135v140h135zM528 302q-3 -5 -3 -7v-160l3 -7l7 -3h155l7 3l3 7v160l-3 7q-5 3 -7 3h-155zM68 607q-3 -5 -3 -7v-775l3 -6l7 -3l770 -1q6 2 8 5.5t2 5.5v159l-3 8
q-5 3 -7 3l-610 -1v435h610l7 3l3 7v160l-3 7q-5 3 -7 3h-770z" />
    <glyph glyph-name="sterling" unicode="&#xa3;" 
d="M675 590v-140h-140l-7 -3q-3 -5 -3 -7v-145l3 -7l7 -3h140v-140h-145l-7 -3q-3 -5 -3 -7v-150l3 -6l7 -3l305 -1v-140h-750v140h300q6 2 8 5.5t2 5.5v149l-3 7q-5 3 -7 3h-150v140h150l7 3l3 7v295h280zM378 607q-3 -5 -3 -7v-295h-150l-7 -3q-3 -5 -3 -7v-160l3 -7l7 -3
h150v-130h-300l-7 -2l-3 -7v-161l3 -6l7 -3l770 -1q6 2 8 5.5t2 5.5v159l-3 8q-5 3 -7 3l-305 -1v130h145l7 3l3 7v160l-3 7q-5 3 -7 3h-140v125h140l7 3l3 7v160l-3 7q-5 3 -7 3h-300z" />
    <glyph glyph-name="currency" unicode="&#xa4;" 
d="M84 -28h136v-136h-136v136zM67 -180l7 -3l156 -1q6 2 8 5.5t2 5.5v155l-3 8q-5 3 -7 3l-156 -1l-7 -2l-3 -7v-157z" />
    <glyph glyph-name="yen" unicode="&#xa5;" 
d="M145 590v-145l3 -7l7 -3h450l7 3l3 7v145h140v-290h-300l-7 -3q-3 -5 -3 -7v-150l3 -7l7 -3h300v-140h-300l-7 -2l-3 -7v-146h-130v145l-3 8q-5 3 -7 3l-290 -1v140h290l7 3l3 7v150l-3 7q-5 3 -7 3h-295v290h135zM-6 607q-3 -5 -3 -7l-1 -310l4 -7l6 -3h295v-130h-290
l-6 -3q-3 -5 -3 -7l-1 -160q2 -5 4 -6l6 -3l290 -1v-145l3 -6l7 -3l150 -1q6 2 8 5.5t2 5.5v144h300q6 2 8 5.5t2 5.5v159l-3 7q-5 3 -7 3h-300v130h300l7 3l3 7v310l-3 7q-5 3 -7 3h-160l-7 -3q-3 -5 -3 -7v-145h-430v145l-3 7q-5 3 -7 3h-155z" />
    <glyph glyph-name="brokenbar" unicode="&#xa6;" horiz-adv-x="788" 
 />
    <glyph glyph-name="section" unicode="&#xa7;" 
d="M380 585v-135h-155l-7 -3q-3 -5 -3 -7v-145l3 -7l7 -3h310l7 3l3 7v140h130v-140l3 -7l7 -3h150v-450h-750v140h600q6 2 8 5.5t2 5.5v149l-3 7q-5 3 -7 3h-600v440h295zM68 602q-3 -5 -3 -7v-460l3 -7l7 -3h600v-130h-600l-7 -2l-3 -7v-161l3 -6l7 -3l770 -1q6 2 8 5.5
t2 5.5v469l-3 7q-5 3 -7 3h-150v140l-3 7q-5 3 -7 3h-150l-7 -3q-3 -5 -3 -7v-140h-290v125h155l7 3l3 7v155l-3 7q-5 3 -7 3h-315z" />
    <glyph glyph-name="dieresis" unicode="&#xa8;" 
d="M520 585v-140h-130v140h130zM215 590v-140h-130v140h130zM68 607q-3 -5 -3 -7v-160l3 -7l7 -3h150l7 3l3 7v160l-3 7q-5 3 -7 3h-150zM373 602q-3 -5 -3 -7v-160l3 -7l7 -3h150l7 3l3 7v160l-3 7q-5 3 -7 3h-150z" />
    <glyph glyph-name="copyright" unicode="&#xa9;" 
d="M85 590h750v-755h-140v605l-3 7q-5 3 -7 3h-600v140zM525 285v-140h-140l-7 -3q-3 -5 -3 -7v-150l3 -6l7 -3l140 -1v-140h-290v450h290zM218 302q-3 -5 -3 -7v-470l3 -6l7 -3l310 -1q6 2 8 5.5t2 5.5v159l-3 8q-5 3 -7 3l-140 -1v130h140l7 3l3 7v160l-3 7q-5 3 -7 3
h-310zM68 433l7 -3h600v-605l3 -6l7 -3l160 -1q6 2 8 5.5t2 5.5v774l-3 7q-5 3 -7 3h-770l-7 -3q-3 -5 -3 -7v-160z" />
    <glyph glyph-name="ordfeminine" unicode="&#xaa;" 
d="M84 -28h136v-136h-136v136zM67 -180l7 -3l156 -1q6 2 8 5.5t2 5.5v155l-3 8q-5 3 -7 3l-156 -1l-7 -2l-3 -7v-157z" />
    <glyph glyph-name="guillemotleft" unicode="&#xab;" 
d="M375 590v-295l3 -7l7 -3h150l7 3l3 7v295h285v-140h-145l-7 -3q-3 -5 -3 -7v-455l3 -6l7 -3l155 -1v-140h-300v300l-3 7q-5 3 -7 3h-145l-7 -3q-3 -5 -3 -7v-295h-145v295l-3 7q-5 3 -7 3h-140v140h145l7 3l3 7v294zM218 606q-3 -5 -3 -7v-294h-145l-7 -3q-3 -5 -3 -7
v-160l3 -7l7 -3h140v-295l3 -6l7 -3l165 -1q6 2 8 5.5t2 5.5v294h125v-300l3 -6l7 -3l320 -1q6 2 8 5.5t2 5.5v159l-3 8q-5 3 -7 3l-155 -1v435h145l7 3l3 7v160l-3 7q-5 3 -7 3h-305l-7 -3q-3 -5 -3 -7v-295h-130v295l-3 7q-5 3 -7 3l-160 -1z" />
    <glyph glyph-name="logicalnot" unicode="&#xac;" 
d="M835 285v-450h-140v300l-3 7q-5 3 -7 3h-600v140h750zM68 302q-3 -5 -3 -7v-160l3 -7l7 -3h600v-300l3 -6l7 -3l160 -1q6 2 8 5.5t2 5.5v469l-3 7q-5 3 -7 3h-770z" />
    <glyph glyph-name="minus" unicode="&#xad;" horiz-adv-x="788" 
 />
    <glyph glyph-name="registered" unicode="&#xae;" 
d="M835 590v-140h-610l-7 -3q-3 -5 -3 -7v-605h-130v755h750zM680 130v-295h-135v295h135zM528 147q-3 -5 -3 -7v-315l3 -6l7 -3l155 -1q6 2 8 5.5t2 5.5v314l-3 7q-5 3 -7 3h-155zM68 607q-3 -5 -3 -7v-775l3 -6l7 -3l150 -1q6 2 8 5.5t2 5.5v604h610l7 3l3 7v160l-3 7
q-5 3 -7 3h-770z" />
    <glyph glyph-name="macron" unicode="&#xaf;" horiz-adv-x="788" 
 />
    <glyph glyph-name="degree" unicode="&#xb0;" horiz-adv-x="788" 
 />
    <glyph glyph-name="plusminus" unicode="&#xb1;" 
d="M835 -25v-140h-750v140h750zM525 590v-145l3 -7l7 -3h300v-135h-300l-7 -3q-3 -5 -3 -7v-145h-135v145l-3 7q-5 3 -7 3h-295v135h300l7 3l3 7v145h130zM378 607q-3 -5 -3 -7v-145h-300l-7 -3q-3 -5 -3 -7v-155l3 -7l7 -3h295v-145l3 -7l7 -3h155l7 3l3 7v145h300l7 3l3 7
v155l-3 7q-5 3 -7 3h-300v145l-3 7q-5 3 -7 3h-150zM68 -7l-3 -7v-161l3 -6l7 -3l770 -1q6 2 8 5.5t2 5.5v159l-3 8q-5 3 -7 3l-770 -1z" />
    <glyph glyph-name="twosuperior" unicode="&#xb2;" horiz-adv-x="788" 
 />
    <glyph glyph-name="threesuperior" unicode="&#xb3;" horiz-adv-x="788" 
 />
    <glyph glyph-name="acute" unicode="&#xb4;" 
d="M360 590v-140h-135l-7 -3q-3 -5 -3 -7v-140h-130v290h275zM68 607q-3 -5 -3 -7v-310l3 -7l7 -3h150l7 3l3 7v140h135l7 3l3 7v160l-3 7q-5 3 -7 3h-295z" />
    <glyph glyph-name="mu" unicode="&#xb5;" 
d="M215 590v-450l3 -7l7 -3h310l7 3l3 7v450h125v-605l3 -6l7 -3l155 -1v-135h-290v140l-3 8q-5 3 -7 3l-310 -1l-7 -2l-3 -7v-141h-130v750h130zM68 607q-3 -5 -3 -7v-770l3 -6l7 -3l150 -1q6 2 8 5.5t2 5.5v139h290v-140l3 -6l7 -3l310 -1q6 2 8 5.5t2 5.5v154l-3 8
q-5 3 -7 3l-155 -1v605l-3 7q-5 3 -7 3h-145l-7 -3q-3 -5 -3 -7v-450h-290v450l-3 7q-5 3 -7 3h-150z" />
    <glyph glyph-name="paragraph" unicode="&#xb6;" 
d="M835 590v-140h-610l-7 -3q-3 -5 -3 -7v-145l3 -7l7 -3h300v-450h-130v300l-3 7q-5 3 -7 3h-300v445h750zM835 285v-445h-140v445h140zM678 302q-3 -5 -3 -7v-465l3 -6l7 -3l160 -1q6 2 8 5.5t2 5.5v464l-3 7q-5 3 -7 3h-160zM68 607q-3 -5 -3 -7v-465l3 -7l7 -3h300v-300
l3 -6l7 -3l150 -1q6 2 8 5.5t2 5.5v469l-3 7q-5 3 -7 3h-300v125h610l7 3l3 7v160l-3 7q-5 3 -7 3h-770z" />
    <glyph glyph-name="periodcentered" unicode="&#x2219;" 
d="M84 -28h136v-136h-136v136zM67 -180l7 -3l156 -1q6 2 8 5.5t2 5.5v155l-3 8q-5 3 -7 3l-156 -1l-7 -2l-3 -7v-157z" />
    <glyph glyph-name="cedilla" unicode="&#xb8;" 
d="M84 -28h136v-136h-136v136zM67 -180l7 -3l156 -1q6 2 8 5.5t2 5.5v155l-3 8q-5 3 -7 3l-156 -1l-7 -2l-3 -7v-157z" />
    <glyph glyph-name="onesuperior" unicode="&#xb9;" horiz-adv-x="788" 
 />
    <glyph glyph-name="ordmasculine" unicode="&#xba;" 
d="M84 -28h136v-136h-136v136zM67 -180l7 -3l156 -1q6 2 8 5.5t2 5.5v155l-3 8q-5 3 -7 3l-156 -1l-7 -2l-3 -7v-157z" />
    <glyph glyph-name="guillemotright" unicode="&#xbb;" 
d="M684 589v-294l3 -7l7 -3h145v-140h-140l-7 -3q-3 -5 -3 -7v-295h-145v295l-3 7q-5 3 -7 3h-145l-7 -3q-3 -5 -3 -7v-300h-300v140h155q6 2 8 5.5t2 5.5v454l-3 7q-5 3 -7 3h-145v140h285v-295l3 -7l7 -3h150l7 3l3 7v295zM527 607q-3 -5 -3 -7v-295h-130v295l-3 7
q-5 3 -7 3h-305l-7 -3q-3 -5 -3 -7v-160l3 -7l7 -3h145v-435h-155l-7 -2l-3 -7v-161l3 -6l7 -3l320 -1q6 2 8 5.5t2 5.5v299h125v-295l3 -6l7 -3l165 -1q6 2 8 5.5t2 5.5v294h140l7 3l3 7v160l-3 7q-5 3 -7 3h-145v294l-3 7q-5 3 -7 3l-160 1z" />
    <glyph glyph-name="onequarter" unicode="&#xbc;" horiz-adv-x="788" 
 />
    <glyph glyph-name="onehalf" unicode="&#xbd;" horiz-adv-x="788" 
 />
    <glyph glyph-name="threequarters" unicode="&#xbe;" horiz-adv-x="788" 
 />
    <glyph glyph-name="questiondown" unicode="&#xbf;" 
d="M215 285v-450h-130v450h130zM215 590v-140h-130v140h130zM68 607q-3 -5 -3 -7v-160l3 -7l7 -3h150l7 3l3 7v160l-3 7q-5 3 -7 3h-150zM68 302q-3 -5 -3 -7v-470l3 -6l7 -3l150 -1q6 2 8 5.5t2 5.5v469l-3 7q-5 3 -7 3h-150z" />
    <glyph glyph-name="Agrave" unicode="&#xc0;" 
d="M84 -28h136v-136h-136v136zM67 -180l7 -3l156 -1q6 2 8 5.5t2 5.5v155l-3 8q-5 3 -7 3l-156 -1l-7 -2l-3 -7v-157z" />
    <glyph glyph-name="Aacute" unicode="&#xc1;" 
d="M84 -28h136v-136h-136v136zM67 -180l7 -3l156 -1q6 2 8 5.5t2 5.5v155l-3 8q-5 3 -7 3l-156 -1l-7 -2l-3 -7v-157z" />
    <glyph glyph-name="Acircumflex" unicode="&#xc2;" 
d="M84 -28h136v-136h-136v136zM67 -180l7 -3l156 -1q6 2 8 5.5t2 5.5v155l-3 8q-5 3 -7 3l-156 -1l-7 -2l-3 -7v-157z" />
    <glyph glyph-name="Atilde" unicode="&#xc3;" 
d="M84 -28h136v-136h-136v136zM67 -180l7 -3l156 -1q6 2 8 5.5t2 5.5v155l-3 8q-5 3 -7 3l-156 -1l-7 -2l-3 -7v-157z" />
    <glyph glyph-name="Adieresis" unicode="&#xc4;" 
d="M84 -28h136v-136h-136v136zM67 -180l7 -3l156 -1q6 2 8 5.5t2 5.5v155l-3 8q-5 3 -7 3l-156 -1l-7 -2l-3 -7v-157z" />
    <glyph glyph-name="Aring" unicode="&#xc5;" 
d="M84 -28h136v-136h-136v136zM67 -180l7 -3l156 -1q6 2 8 5.5t2 5.5v155l-3 8q-5 3 -7 3l-156 -1l-7 -2l-3 -7v-157z" />
    <glyph glyph-name="AE" unicode="&#xc6;" 
d="M755 590v-140h-220l-7 -3q-3 -5 -3 -7v-145l3 -7l7 -3h220v-140h-220l-7 -3q-3 -5 -3 -7v-150l3 -6l7 -3l220 -1v-140h-670v450h290l7 3l3 7v145l-3 7q-5 3 -7 3h-290v140h670zM215 -15l3 -6l7 -3l150 -1q6 2 8 5.5t2 5.5v149l-3 7q-5 3 -7 3h-150l-7 -3q-3 -5 -3 -7
v-150zM365 125v-130h-130v130h130zM68 607q-3 -5 -3 -7v-160l3 -7l7 -3h290v-125h-290l-7 -3q-3 -5 -3 -7v-470l3 -6l7 -3l690 -1q6 2 8 5.5t2 5.5v159l-3 8q-5 3 -7 3l-220 -1v130h220l7 3l3 7v160l-3 7q-5 3 -7 3h-220v125h220l7 3l3 7v160l-3 7q-5 3 -7 3h-690z" />
    <glyph glyph-name="Ccedilla" unicode="&#xc7;" 
d="M84 -28h136v-136h-136v136zM67 -180l7 -3l156 -1q6 2 8 5.5t2 5.5v155l-3 8q-5 3 -7 3l-156 -1l-7 -2l-3 -7v-157z" />
    <glyph glyph-name="Egrave" unicode="&#xc8;" 
d="M84 -28h136v-136h-136v136zM67 -180l7 -3l156 -1q6 2 8 5.5t2 5.5v155l-3 8q-5 3 -7 3l-156 -1l-7 -2l-3 -7v-157z" />
    <glyph glyph-name="Eacute" unicode="&#xc9;" 
d="M84 -28h136v-136h-136v136zM67 -180l7 -3l156 -1q6 2 8 5.5t2 5.5v155l-3 8q-5 3 -7 3l-156 -1l-7 -2l-3 -7v-157z" />
    <glyph glyph-name="Ecircumflex" unicode="&#xca;" 
d="M84 -28h136v-136h-136v136zM67 -180l7 -3l156 -1q6 2 8 5.5t2 5.5v155l-3 8q-5 3 -7 3l-156 -1l-7 -2l-3 -7v-157z" />
    <glyph glyph-name="Edieresis" unicode="&#xcb;" 
d="M84 -28h136v-136h-136v136zM67 -180l7 -3l156 -1q6 2 8 5.5t2 5.5v155l-3 8q-5 3 -7 3l-156 -1l-7 -2l-3 -7v-157z" />
    <glyph glyph-name="Igrave" unicode="&#xcc;" 
d="M84 -28h136v-136h-136v136zM67 -180l7 -3l156 -1q6 2 8 5.5t2 5.5v155l-3 8q-5 3 -7 3l-156 -1l-7 -2l-3 -7v-157z" />
    <glyph glyph-name="Iacute" unicode="&#xcd;" 
d="M84 -28h136v-136h-136v136zM67 -180l7 -3l156 -1q6 2 8 5.5t2 5.5v155l-3 8q-5 3 -7 3l-156 -1l-7 -2l-3 -7v-157z" />
    <glyph glyph-name="Icircumflex" unicode="&#xce;" 
d="M84 -28h136v-136h-136v136zM67 -180l7 -3l156 -1q6 2 8 5.5t2 5.5v155l-3 8q-5 3 -7 3l-156 -1l-7 -2l-3 -7v-157z" />
    <glyph glyph-name="Idieresis" unicode="&#xcf;" 
d="M84 -28h136v-136h-136v136zM67 -180l7 -3l156 -1q6 2 8 5.5t2 5.5v155l-3 8q-5 3 -7 3l-156 -1l-7 -2l-3 -7v-157z" />
    <glyph glyph-name="Eth" unicode="&#xd0;" horiz-adv-x="788" 
 />
    <glyph glyph-name="Ntilde" unicode="&#xd1;" 
d="M84 -28h136v-136h-136v136zM67 -180l7 -3l156 -1q6 2 8 5.5t2 5.5v155l-3 8q-5 3 -7 3l-156 -1l-7 -2l-3 -7v-157z" />
    <glyph glyph-name="Ograve" unicode="&#xd2;" 
d="M84 -28h136v-136h-136v136zM67 -180l7 -3l156 -1q6 2 8 5.5t2 5.5v155l-3 8q-5 3 -7 3l-156 -1l-7 -2l-3 -7v-157z" />
    <glyph glyph-name="Oacute" unicode="&#xd3;" 
d="M84 -28h136v-136h-136v136zM67 -180l7 -3l156 -1q6 2 8 5.5t2 5.5v155l-3 8q-5 3 -7 3l-156 -1l-7 -2l-3 -7v-157z" />
    <glyph glyph-name="Ocircumflex" unicode="&#xd4;" 
d="M84 -28h136v-136h-136v136zM67 -180l7 -3l156 -1q6 2 8 5.5t2 5.5v155l-3 8q-5 3 -7 3l-156 -1l-7 -2l-3 -7v-157z" />
    <glyph glyph-name="Otilde" unicode="&#xd5;" 
d="M84 -28h136v-136h-136v136zM67 -180l7 -3l156 -1q6 2 8 5.5t2 5.5v155l-3 8q-5 3 -7 3l-156 -1l-7 -2l-3 -7v-157z" />
    <glyph glyph-name="Odieresis" unicode="&#xd6;" 
d="M84 -28h136v-136h-136v136zM67 -180l7 -3l156 -1q6 2 8 5.5t2 5.5v155l-3 8q-5 3 -7 3l-156 -1l-7 -2l-3 -7v-157z" />
    <glyph glyph-name="multiply" unicode="&#xd7;" horiz-adv-x="788" 
 />
    <glyph glyph-name="Oslash" unicode="&#xd8;" 
d="M675 590v-145l3 -7l7 -3h150v-445h-450l-7 -2l-3 -7v-146h-140v145l-3 8q-5 3 -7 3l-140 -1v445h450l7 3l3 7v145h130zM215 140l3 -7l7 -3h460l7 3l3 7v150l-3 7q-5 3 -7 3h-460l-7 -3q-3 -5 -3 -7v-150zM675 280v-130h-440v130h440zM528 607q-3 -5 -3 -7v-145h-450
l-7 -3q-3 -5 -3 -7v-465l3 -6l7 -3l140 -1v-145l3 -6l7 -3l160 -1q6 2 8 5.5t2 5.5v144h450q6 2 8 5.5t2 5.5v464l-3 7q-5 3 -7 3h-150v145l-3 7q-5 3 -7 3h-150z" />
    <glyph glyph-name="Ugrave" unicode="&#xd9;" 
d="M84 -28h136v-136h-136v136zM67 -180l7 -3l156 -1q6 2 8 5.5t2 5.5v155l-3 8q-5 3 -7 3l-156 -1l-7 -2l-3 -7v-157z" />
    <glyph glyph-name="Uacute" unicode="&#xda;" 
d="M84 -28h136v-136h-136v136zM67 -180l7 -3l156 -1q6 2 8 5.5t2 5.5v155l-3 8q-5 3 -7 3l-156 -1l-7 -2l-3 -7v-157z" />
    <glyph glyph-name="Ucircumflex" unicode="&#xdb;" 
d="M84 -28h136v-136h-136v136zM67 -180l7 -3l156 -1q6 2 8 5.5t2 5.5v155l-3 8q-5 3 -7 3l-156 -1l-7 -2l-3 -7v-157z" />
    <glyph glyph-name="Udieresis" unicode="&#xdc;" 
d="M84 -28h136v-136h-136v136zM67 -180l7 -3l156 -1q6 2 8 5.5t2 5.5v155l-3 8q-5 3 -7 3l-156 -1l-7 -2l-3 -7v-157z" />
    <glyph glyph-name="Yacute" unicode="&#xdd;" 
d="M84 -28h136v-136h-136v136zM67 -180l7 -3l156 -1q6 2 8 5.5t2 5.5v155l-3 8q-5 3 -7 3l-156 -1l-7 -2l-3 -7v-157z" />
    <glyph glyph-name="Thorn" unicode="&#xde;" horiz-adv-x="788" 
 />
    <glyph glyph-name="germandbls" unicode="&#xdf;" 
d="M835 590v-140h-610l-7 -3q-3 -5 -3 -7v-145l3 -7l7 -3h380v-450h-520v755h750zM215 -15l3 -6l7 -3l230 -1q6 2 8 5.5t2 5.5v149l-3 7q-5 3 -7 3h-230l-7 -3q-3 -5 -3 -7v-150zM445 125v-130h-210v130h210zM68 607q-3 -5 -3 -7v-775l3 -6l7 -3l540 -1q6 2 8 5.5t2 5.5v469
l-3 7q-5 3 -7 3h-380v125h610l7 3l3 7v160l-3 7q-5 3 -7 3h-770z" />
    <glyph glyph-name="agrave" unicode="&#xe0;" 
d="M84 -28h136v-136h-136v136zM67 -180l7 -3l156 -1q6 2 8 5.5t2 5.5v155l-3 8q-5 3 -7 3l-156 -1l-7 -2l-3 -7v-157z" />
    <glyph glyph-name="aacute" unicode="&#xe1;" 
d="M84 -28h136v-136h-136v136zM67 -180l7 -3l156 -1q6 2 8 5.5t2 5.5v155l-3 8q-5 3 -7 3l-156 -1l-7 -2l-3 -7v-157z" />
    <glyph glyph-name="acircumflex" unicode="&#xe2;" 
d="M84 -28h136v-136h-136v136zM67 -180l7 -3l156 -1q6 2 8 5.5t2 5.5v155l-3 8q-5 3 -7 3l-156 -1l-7 -2l-3 -7v-157z" />
    <glyph glyph-name="atilde" unicode="&#xe3;" 
d="M84 -28h136v-136h-136v136zM67 -180l7 -3l156 -1q6 2 8 5.5t2 5.5v155l-3 8q-5 3 -7 3l-156 -1l-7 -2l-3 -7v-157z" />
    <glyph glyph-name="adieresis" unicode="&#xe4;" 
d="M84 -28h136v-136h-136v136zM67 -180l7 -3l156 -1q6 2 8 5.5t2 5.5v155l-3 8q-5 3 -7 3l-156 -1l-7 -2l-3 -7v-157z" />
    <glyph glyph-name="aring" unicode="&#xe5;" 
d="M84 -28h136v-136h-136v136zM67 -180l7 -3l156 -1q6 2 8 5.5t2 5.5v155l-3 8q-5 3 -7 3l-156 -1l-7 -2l-3 -7v-157z" />
    <glyph glyph-name="ae" unicode="&#xe6;" 
d="M755 590v-140h-220l-7 -3q-3 -5 -3 -7v-145l3 -7l7 -3h220v-140h-220l-7 -3q-3 -5 -3 -7v-150l3 -6l7 -3l220 -1v-140h-670v450h290l7 3l3 7v145l-3 7q-5 3 -7 3h-290v140h670zM215 -15l3 -6l7 -3l150 -1q6 2 8 5.5t2 5.5v149l-3 7q-5 3 -7 3h-150l-7 -3q-3 -5 -3 -7
v-150zM365 125v-130h-130v130h130zM68 607q-3 -5 -3 -7v-160l3 -7l7 -3h290v-125h-290l-7 -3q-3 -5 -3 -7v-470l3 -6l7 -3l690 -1q6 2 8 5.5t2 5.5v159l-3 8q-5 3 -7 3l-220 -1v130h220l7 3l3 7v160l-3 7q-5 3 -7 3h-220v125h220l7 3l3 7v160l-3 7q-5 3 -7 3h-690z" />
    <glyph glyph-name="ccedilla" unicode="&#xe7;" 
d="M84 -28h136v-136h-136v136zM67 -180l7 -3l156 -1q6 2 8 5.5t2 5.5v155l-3 8q-5 3 -7 3l-156 -1l-7 -2l-3 -7v-157z" />
    <glyph glyph-name="egrave" unicode="&#xe8;" 
d="M84 -28h136v-136h-136v136zM67 -180l7 -3l156 -1q6 2 8 5.5t2 5.5v155l-3 8q-5 3 -7 3l-156 -1l-7 -2l-3 -7v-157z" />
    <glyph glyph-name="eacute" unicode="&#xe9;" 
d="M84 -28h136v-136h-136v136zM67 -180l7 -3l156 -1q6 2 8 5.5t2 5.5v155l-3 8q-5 3 -7 3l-156 -1l-7 -2l-3 -7v-157z" />
    <glyph glyph-name="ecircumflex" unicode="&#xea;" 
d="M84 -28h136v-136h-136v136zM67 -180l7 -3l156 -1q6 2 8 5.5t2 5.5v155l-3 8q-5 3 -7 3l-156 -1l-7 -2l-3 -7v-157z" />
    <glyph glyph-name="edieresis" unicode="&#xeb;" 
d="M84 -28h136v-136h-136v136zM67 -180l7 -3l156 -1q6 2 8 5.5t2 5.5v155l-3 8q-5 3 -7 3l-156 -1l-7 -2l-3 -7v-157z" />
    <glyph glyph-name="igrave" unicode="&#xec;" 
d="M84 -28h136v-136h-136v136zM67 -180l7 -3l156 -1q6 2 8 5.5t2 5.5v155l-3 8q-5 3 -7 3l-156 -1l-7 -2l-3 -7v-157z" />
    <glyph glyph-name="iacute" unicode="&#xed;" 
d="M84 -28h136v-136h-136v136zM67 -180l7 -3l156 -1q6 2 8 5.5t2 5.5v155l-3 8q-5 3 -7 3l-156 -1l-7 -2l-3 -7v-157z" />
    <glyph glyph-name="icircumflex" unicode="&#xee;" 
d="M84 -28h136v-136h-136v136zM67 -180l7 -3l156 -1q6 2 8 5.5t2 5.5v155l-3 8q-5 3 -7 3l-156 -1l-7 -2l-3 -7v-157z" />
    <glyph glyph-name="idieresis" unicode="&#xef;" 
d="M84 -28h136v-136h-136v136zM67 -180l7 -3l156 -1q6 2 8 5.5t2 5.5v155l-3 8q-5 3 -7 3l-156 -1l-7 -2l-3 -7v-157z" />
    <glyph glyph-name="eth" unicode="&#xf0;" horiz-adv-x="788" 
 />
    <glyph glyph-name="ntilde" unicode="&#xf1;" 
d="M84 -28h136v-136h-136v136zM67 -180l7 -3l156 -1q6 2 8 5.5t2 5.5v155l-3 8q-5 3 -7 3l-156 -1l-7 -2l-3 -7v-157z" />
    <glyph glyph-name="ograve" unicode="&#xf2;" 
d="M84 -28h136v-136h-136v136zM67 -180l7 -3l156 -1q6 2 8 5.5t2 5.5v155l-3 8q-5 3 -7 3l-156 -1l-7 -2l-3 -7v-157z" />
    <glyph glyph-name="oacute" unicode="&#xf3;" 
d="M84 -28h136v-136h-136v136zM67 -180l7 -3l156 -1q6 2 8 5.5t2 5.5v155l-3 8q-5 3 -7 3l-156 -1l-7 -2l-3 -7v-157z" />
    <glyph glyph-name="ocircumflex" unicode="&#xf4;" 
d="M84 -28h136v-136h-136v136zM67 -180l7 -3l156 -1q6 2 8 5.5t2 5.5v155l-3 8q-5 3 -7 3l-156 -1l-7 -2l-3 -7v-157z" />
    <glyph glyph-name="otilde" unicode="&#xf5;" 
d="M84 -28h136v-136h-136v136zM67 -180l7 -3l156 -1q6 2 8 5.5t2 5.5v155l-3 8q-5 3 -7 3l-156 -1l-7 -2l-3 -7v-157z" />
    <glyph glyph-name="odieresis" unicode="&#xf6;" 
d="M84 -28h136v-136h-136v136zM67 -180l7 -3l156 -1q6 2 8 5.5t2 5.5v155l-3 8q-5 3 -7 3l-156 -1l-7 -2l-3 -7v-157z" />
    <glyph glyph-name="divide" unicode="&#xf7;" 
d="M595 590v-145l3 -7l7 -3h150v-140l3 -7l7 -3h140v-140h-140l-7 -3q-3 -5 -3 -7v-145h-150l-7 -2l-3 -7v-146h-130v145l-3 8q-5 3 -7 3l-140 -1v145l-3 7q-5 3 -7 3h-150v140h150l7 3l3 7v140h140l-7 3l-3 7v-5l4 -7l6 -2q5 1 6 2l4 7v150h130zM615 440l-3 7q-5 3 -7 3
h-150l-7 -3q-3 -5 -3 -7v-140h-140l-7 -3q-3 -5 -3 -7v-150l3 -7l7 -3h140v-145l3 -6l7 -3l150 -1q6 2 8 5.5t2 5.5v144h150l7 3l3 7v150l-3 7q-5 3 -7 3h-150v140zM598 283l7 -3h150v-130h-150l-7 -3q-3 -5 -3 -7v-145h-130v145l-3 7q-5 3 -7 3h-140v130h140l7 3l3 7v140
h130v-140zM448 607q-3 -5 -3 -7v-145h-140l-7 -3q-3 -5 -3 -7v-140h-150l-7 -3q-3 -5 -3 -7v-160l3 -7l7 -3h150v-145l3 -6l7 -3l140 -1v-145l3 -6l7 -3l150 -1q6 2 8 5.5t2 5.5v144h150q6 2 8 5.5t2 5.5v144h140l7 3l3 7v160l-3 7q-5 3 -7 3h-140v140l-3 7q-5 3 -7 3h-150
v145l-3 7q-5 3 -7 3h-150z" />
    <glyph glyph-name="oslash" unicode="&#xf8;" 
d="M675 590v-145l3 -7l7 -3h150v-445h-455l-7 -2l-3 -7v-146h-135v145l-3 8q-5 3 -7 3l-140 -1v445h450l7 3l3 7v145h130zM215 140l3 -7l7 -3h460l7 3l3 7v150l-3 7q-5 3 -7 3h-460l-7 -3q-3 -5 -3 -7v-150zM675 280v-130h-440v130h440zM528 607q-3 -5 -3 -7v-145h-450
l-7 -3q-3 -5 -3 -7v-465l3 -6l7 -3l140 -1v-145l3 -6l7 -3l155 -1q6 2 8 5.5t2 5.5v144h455q6 2 8 5.5t2 5.5v464l-3 7q-5 3 -7 3h-150v145l-3 7q-5 3 -7 3h-150z" />
    <glyph glyph-name="ugrave" unicode="&#xf9;" 
d="M84 -28h136v-136h-136v136zM67 -180l7 -3l156 -1q6 2 8 5.5t2 5.5v155l-3 8q-5 3 -7 3l-156 -1l-7 -2l-3 -7v-157z" />
    <glyph glyph-name="uacute" unicode="&#xfa;" 
d="M84 -28h136v-136h-136v136zM67 -180l7 -3l156 -1q6 2 8 5.5t2 5.5v155l-3 8q-5 3 -7 3l-156 -1l-7 -2l-3 -7v-157z" />
    <glyph glyph-name="ucircumflex" unicode="&#xfb;" 
d="M84 -28h136v-136h-136v136zM67 -180l7 -3l156 -1q6 2 8 5.5t2 5.5v155l-3 8q-5 3 -7 3l-156 -1l-7 -2l-3 -7v-157z" />
    <glyph glyph-name="udieresis" unicode="&#xfc;" 
d="M84 -28h136v-136h-136v136zM67 -180l7 -3l156 -1q6 2 8 5.5t2 5.5v155l-3 8q-5 3 -7 3l-156 -1l-7 -2l-3 -7v-157z" />
    <glyph glyph-name="yacute" unicode="&#xfd;" 
d="M84 -28h136v-136h-136v136zM67 -180l7 -3l156 -1q6 2 8 5.5t2 5.5v155l-3 8q-5 3 -7 3l-156 -1l-7 -2l-3 -7v-157z" />
    <glyph glyph-name="thorn" unicode="&#xfe;" horiz-adv-x="788" 
 />
    <glyph glyph-name="ydieresis" unicode="&#xff;" 
d="M295 285v-145l3 -7l7 -3h300l7 3l3 7v145h140v-295h-220l-7 -2l-3 -7v-146h-140v145l-3 8q-5 3 -7 3l-220 -1v295h140zM290 590v-140h-130v140h130zM750 590v-140h-130v140h130zM603 607q-3 -5 -3 -7v-160l3 -7l7 -3h150l7 3l3 7v160l-3 7q-5 3 -7 3h-150zM143 607
q-3 -5 -3 -7v-160l3 -7l7 -3h150l7 3l3 7v160l-3 7q-5 3 -7 3h-150zM138 302q-3 -5 -3 -7v-315l3 -6l7 -3l220 -1v-145l3 -6l7 -3l160 -1q6 2 8 5.5t2 5.5v144h220q6 2 8 5.5t2 5.5v314l-3 7q-5 3 -7 3h-160l-7 -3q-3 -5 -3 -7v-145h-280v145l-3 7q-5 3 -7 3h-160z" />
    <glyph glyph-name="breve" unicode="&#x2d8;" horiz-adv-x="498" 
d="M120 676q8 -22 20 -37t31 -21v1l36 -10l39 -2h15h12q8 2 12 2q20 3 36 10v-1q18 6 30 21t21 36q0 -20 -11 -40l-22 -34q-15 -18 -37.5 -27t-55.5 -9q-29 0 -53.5 9t-38.5 26v1h-1q-12 13 -23 34q-8 19 -12 41h2zM134 694l-6 2l-22 -1l-8 -3q-2 -2 -2 -8q3 -28 13.5 -52
t28.5 -44.5t47 -32.5q30 -10 61 -10q35 0 62 10.5t45 31.5l1 1q16 19 28 44q9 21 14 53l-2 8q-3 3 -8 3l-22 -1l-7 -2l-3 -5q-6 -21 -15.5 -33.5t-23.5 -16.5v-1l-33 -8l-36 -2h-13h-11q-8 2 -16.5 3t-14 2.5t-14.5 4.5v1q-11 3 -23 16q-9 12 -16 35q-2 4 -4 5z" />
    <glyph glyph-name="dotaccent" unicode="&#x2d9;" horiz-adv-x="498" 
d="M233 570l-13 9l-9 13l-3 17l3 15l9 14q7 7 14 9l16 4q8 0 15 -4l14 -9q7 -6 9 -14l4 -15q0 -8 -4 -16l-9 -14q-6 -6 -14 -9l-15 -3l7 -3q3 -5 3 -7l-3 9q-2 2 -8 2q-10 0 -16 2zM243 550q-3 3 -3 8l3 -8l7 -3q12 0 23 4.5t19.5 13t14.5 20.5q3 7 5 24q0 14 -5 24.5
t-14 18.5q-6 8 -16 12.5t-27 6.5q-14 0 -24 -4.5t-19 -13.5t-15 -21l-4 -23q0 -13 4.5 -23.5t13 -19.5t20.5 -15l25 -3z" />
    <glyph glyph-name="dotlessi" unicode="&#x131;" 
d="M84 -28h136v-136h-136v136zM67 -180l7 -3l156 -1q6 2 8 5.5t2 5.5v155l-3 8q-5 3 -7 3l-156 -1l-7 -2l-3 -7v-157z" />
    <glyph glyph-name="ring" unicode="&#x2da;" 
d="M84 -28h136v-136h-136v136zM67 -180l7 -3l156 -1q6 2 8 5.5t2 5.5v155l-3 8q-5 3 -7 3l-156 -1l-7 -2l-3 -7v-157z" />
    <glyph glyph-name="ogonek" unicode="&#x2db;" 
d="M84 -28h136v-136h-136v136zM67 -180l7 -3l156 -1q6 2 8 5.5t2 5.5v155l-3 8q-5 3 -7 3l-156 -1l-7 -2l-3 -7v-157z" />
    <glyph glyph-name="caron" unicode="&#x2c7;" horiz-adv-x="498" 
d="M132 694l111 -101l3 -2l4 -1l4 1l3 2l109 101h5l-98 -148h-48l-98 148h5zM100 710q-2 -2 -2 -8l2 -4l112 -168l4 -3l4 -1h58l4 1l4 3l112 168l2 4l-2 8l-8 4h-28l-4 -1l-3 -2l-105 -98l-107 98l-3 2l-4 1h-28q-6 -2 -8 -4z" />
    <glyph glyph-name="Lslash" unicode="&#x141;" horiz-adv-x="788" 
 />
    <glyph glyph-name="lslash" unicode="&#x142;" horiz-adv-x="788" 
 />
    <glyph glyph-name="fraction" unicode="&#x2215;" horiz-adv-x="166" 
d="M-127 -2h-22l440 694h22zM339 702l-3 7l-6 3h-44l-4 -2l-4 -3l-452 -714v-4l3 -7l6 -3l43 -1l5 3l4 3l451 713z" />
    <glyph glyph-name="fi" unicode="&#xf001;" horiz-adv-x="788" 
 />
    <glyph glyph-name="fl" unicode="&#xf002;" horiz-adv-x="788" 
 />
    <glyph glyph-name="Zcaron" unicode="&#x17d;" horiz-adv-x="788" 
 />
    <glyph glyph-name="zcaron" unicode="&#x17e;" horiz-adv-x="788" 
 />
    <glyph glyph-name="Cacute" unicode="&#x106;" horiz-adv-x="788" 
 />
    <glyph glyph-name="cacute" unicode="&#x107;" horiz-adv-x="788" 
 />
    <glyph glyph-name="Ccaron" unicode="&#x10c;" horiz-adv-x="788" 
 />
    <glyph glyph-name="ccaron" unicode="&#x10d;" horiz-adv-x="788" 
 />
    <glyph glyph-name="dcroat" unicode="&#x111;" horiz-adv-x="788" 
 />
    <glyph glyph-name="Scedilla" unicode="&#x15e;" horiz-adv-x="788" 
 />
    <glyph glyph-name="scedilla" unicode="&#x15f;" horiz-adv-x="788" 
 />
    <glyph glyph-name="franc" unicode="&#x20a3;" horiz-adv-x="788" 
 />
    <glyph glyph-name="Gbreve" unicode="&#x11e;" horiz-adv-x="788" 
 />
    <glyph glyph-name="gbreve" unicode="&#x11f;" horiz-adv-x="788" 
 />
    <glyph glyph-name="Idotaccent" unicode="&#x130;" horiz-adv-x="788" 
 />
    <glyph glyph-name="Abreve" unicode="&#x102;" horiz-adv-x="788" 
 />
    <glyph glyph-name="abreve" unicode="&#x103;" horiz-adv-x="788" 
 />
    <glyph glyph-name="Aogonek" unicode="&#x104;" horiz-adv-x="788" 
 />
    <glyph glyph-name="aogonek" unicode="&#x105;" horiz-adv-x="788" 
 />
    <glyph glyph-name="Dcaron" unicode="&#x10e;" horiz-adv-x="788" 
 />
    <glyph glyph-name="dcaron" unicode="&#x10f;" horiz-adv-x="788" 
 />
    <glyph glyph-name="Dslash" unicode="&#x110;" horiz-adv-x="788" 
 />
    <glyph glyph-name="Eogonek" unicode="&#x118;" horiz-adv-x="788" 
 />
    <glyph glyph-name="eogonek" unicode="&#x119;" horiz-adv-x="788" 
 />
    <glyph glyph-name="Ecaron" unicode="&#x11a;" horiz-adv-x="788" 
 />
    <glyph glyph-name="ecaron" unicode="&#x11b;" horiz-adv-x="788" 
 />
    <glyph glyph-name="Lacute" unicode="&#x139;" horiz-adv-x="788" 
 />
    <glyph glyph-name="lacute" unicode="&#x13a;" horiz-adv-x="788" 
 />
    <glyph glyph-name="Lcaron" unicode="&#x13d;" horiz-adv-x="788" 
 />
    <glyph glyph-name="lcaron" unicode="&#x13e;" horiz-adv-x="788" 
 />
    <glyph glyph-name="Ldot" unicode="&#x13f;" horiz-adv-x="788" 
 />
    <glyph glyph-name="ldot" unicode="&#x140;" horiz-adv-x="788" 
 />
    <glyph glyph-name="Nacute" unicode="&#x143;" horiz-adv-x="788" 
 />
    <glyph glyph-name="nacute" unicode="&#x144;" horiz-adv-x="788" 
 />
    <glyph glyph-name="Ncaron" unicode="&#x147;" horiz-adv-x="788" 
 />
    <glyph glyph-name="ncaron" unicode="&#x148;" horiz-adv-x="788" 
 />
    <glyph glyph-name="Odblacute" unicode="&#x150;" horiz-adv-x="788" 
 />
    <glyph glyph-name="odblacute" unicode="&#x151;" horiz-adv-x="788" 
 />
    <glyph glyph-name="Racute" unicode="&#x154;" horiz-adv-x="788" 
 />
    <glyph glyph-name="racute" unicode="&#x155;" horiz-adv-x="788" 
 />
    <glyph glyph-name="Rcaron" unicode="&#x158;" horiz-adv-x="788" 
 />
    <glyph glyph-name="rcaron" unicode="&#x159;" horiz-adv-x="788" 
 />
    <glyph glyph-name="Sacute" unicode="&#x15a;" horiz-adv-x="788" 
 />
    <glyph glyph-name="sacute" unicode="&#x15b;" horiz-adv-x="788" 
 />
    <glyph glyph-name="Tcedilla" unicode="&#x162;" horiz-adv-x="788" 
 />
    <glyph glyph-name="tcedilla" unicode="&#x163;" horiz-adv-x="788" 
 />
    <glyph glyph-name="Tcaron" unicode="&#x164;" horiz-adv-x="788" 
 />
    <glyph glyph-name="tcaron" unicode="&#x165;" horiz-adv-x="788" 
 />
    <glyph glyph-name="Uring" unicode="&#x16e;" horiz-adv-x="788" 
 />
    <glyph glyph-name="uring" unicode="&#x16f;" horiz-adv-x="788" 
 />
    <glyph glyph-name="udblacute" unicode="&#x170;" horiz-adv-x="788" 
 />
    <glyph glyph-name="Udblacute" unicode="&#x171;" horiz-adv-x="788" 
 />
    <glyph glyph-name="Zacute" unicode="&#x179;" horiz-adv-x="788" 
 />
    <glyph glyph-name="zacute" unicode="&#x17a;" horiz-adv-x="788" 
 />
    <glyph glyph-name="Zdot" unicode="&#x17b;" horiz-adv-x="788" 
 />
    <glyph glyph-name="zdot" unicode="&#x17c;" horiz-adv-x="788" 
 />
    <glyph glyph-name="hungarumlaut" unicode="&#x2ba;" 
d="M84 -28h136v-136h-136v136zM67 -180l7 -3l156 -1q6 2 8 5.5t2 5.5v155l-3 8q-5 3 -7 3l-156 -1l-7 -2l-3 -7v-157z" />
    <glyph glyph-name="macron" unicode="&#x2c9;" 
d="M84 -28h136v-136h-136v136zM67 -180l7 -3l156 -1q6 2 8 5.5t2 5.5v155l-3 8q-5 3 -7 3l-156 -1l-7 -2l-3 -7v-157z" />
    <glyph glyph-name="Gamma" unicode="&#x393;" horiz-adv-x="788" 
 />
    <glyph glyph-name="Theta" unicode="&#x398;" horiz-adv-x="788" 
 />
    <glyph glyph-name="summation" unicode="&#x3a3;" 
d="M835 590v-140h-450l-7 -3q-3 -5 -3 -7v-145l3 -7l7 -3h370v-140h-370l-7 -3q-3 -5 -3 -7v-150l3 -6l7 -3l450 -1v-140h-750v140h140q6 2 8 5.5t2 5.5v454l-3 7q-5 3 -7 3h-140v140h750zM68 607q-3 -5 -3 -7v-160l3 -7l7 -3h140v-435h-140l-7 -2l-3 -7v-161l3 -6l7 -3
l770 -1q6 2 8 5.5t2 5.5v159l-3 8q-5 3 -7 3l-450 -1v130h370l7 3l3 7v160l-3 7q-5 3 -7 3h-370v125h450l7 3l3 7v160l-3 7q-5 3 -7 3h-770z" />
    <glyph glyph-name="Phi" unicode="&#x3a6;" horiz-adv-x="788" 
 />
    <glyph glyph-name="Omega" unicode="&#x3a9;" 
d="M670 590v-605l3 -6l7 -3l150 -1v-140h-285v605l-3 7q-5 3 -7 3h-310l-7 -3q-3 -5 -3 -7v-605h-130v755h585zM68 607q-3 -5 -3 -7v-775l3 -6l7 -3l150 -1q6 2 8 5.5t2 5.5v604h290v-605l3 -6l7 -3l305 -1q6 2 8 5.5t2 5.5v159l-3 8q-5 3 -7 3l-150 -1v605l-3 7q-5 3 -7 3
h-605z" />
    <glyph glyph-name="alpha" unicode="&#x3b1;" horiz-adv-x="788" 
 />
    <glyph glyph-name="delta" unicode="&#x3b4;" 
d="M834 590v-755h-440v444h300l7 3l3 7v151l-3 7q-5 3 -7 3h-610v140h750zM704 135l-3 7q-5 3 -7 3h-166l-7 -3q-3 -5 -3 -7v-150l3 -6l7 -3l166 -1q6 2 8 5.5t2 5.5v149zM538 -5v130h146v-130h-146zM67 607q-3 -5 -3 -7v-160l3 -7l7 -3h610v-131h-300l-7 -3q-3 -5 -3 -7
v-464l3 -6l7 -3l460 -1q6 2 8 5.5t2 5.5v774l-3 7q-5 3 -7 3h-770z" />
    <glyph glyph-name="epsilon" unicode="&#x3b5;" horiz-adv-x="788" 
 />
    <glyph glyph-name="pi" unicode="&#x3c0;" 
d="M905 590v-140h-140l-7 -3q-3 -5 -3 -7v-605h-140v605l-3 7q-5 3 -7 3h-300l-7 -3q-3 -5 -3 -7v-605h-140v755h750zM138 607q-3 -5 -3 -7v-775l3 -6l7 -3l160 -1q6 2 8 5.5t2 5.5v604h280v-605l3 -6l7 -3l160 -1q6 2 8 5.5t2 5.5v604h140l7 3l3 7v160l-3 7q-5 3 -7 3h-770
z" />
    <glyph glyph-name="sigma" unicode="&#x3c3;" horiz-adv-x="788" 
 />
    <glyph glyph-name="tau" unicode="&#x3c4;" horiz-adv-x="788" 
 />
    <glyph glyph-name="phi" unicode="&#x3c6;" horiz-adv-x="788" 
 />
    <glyph glyph-name="underscoredbl" unicode="&#x2017;" horiz-adv-x="788" 
 />
    <glyph glyph-name="exclamdbl" unicode="&#x203c;" horiz-adv-x="788" 
 />
    <glyph glyph-name="nsuperior" unicode="&#x207f;" horiz-adv-x="788" 
 />
    <glyph glyph-name="peseta" unicode="&#x20a7;" horiz-adv-x="788" 
 />
    <glyph glyph-name="arrowleft" unicode="&#x2190;" horiz-adv-x="788" 
 />
    <glyph glyph-name="arrowup" unicode="&#x2191;" horiz-adv-x="788" 
 />
    <glyph glyph-name="arrowright" unicode="&#x2192;" horiz-adv-x="788" 
 />
    <glyph glyph-name="arrowdown" unicode="&#x2193;" horiz-adv-x="788" 
 />
    <glyph glyph-name="arrowboth" unicode="&#x2194;" horiz-adv-x="788" 
 />
    <glyph glyph-name="arrowupdn" unicode="&#x2195;" horiz-adv-x="788" 
 />
    <glyph glyph-name="arrowupdnbase" unicode="&#x21a8;" horiz-adv-x="788" 
 />
    <glyph glyph-name="partialdiff" unicode="&#x2202;" horiz-adv-x="788" 
 />
    <glyph glyph-name="Delta" unicode="&#x2206;" 
d="M525 435v-140l3 -7l7 -3h140v-145l3 -7l7 -3h145v-145h-745v145h140l7 3l3 7v145h150l7 3l3 7v140h130zM378 452q-3 -5 -3 -7v-140h-150l-7 -3q-3 -5 -3 -7v-145h-140l-7 -3q-3 -5 -3 -7v-165l3 -6l7 -3l765 -1q6 2 8 5.5t2 5.5v164l-3 7q-5 3 -7 3h-145v145l-3 7
q-5 3 -7 3h-140v140l-3 7q-5 3 -7 3h-150z" />
    <glyph glyph-name="product" unicode="&#x220f;" 
d="M905 590v-140h-140l-7 -3q-3 -5 -3 -7v-605h-140v605l-3 7q-5 3 -7 3h-300l-7 -3q-3 -5 -3 -7v-605h-140v755h750zM138 607q-3 -5 -3 -7v-775l3 -6l7 -3l160 -1q6 2 8 5.5t2 5.5v604h280v-605l3 -6l7 -3l160 -1q6 2 8 5.5t2 5.5v604h140l7 3l3 7v160l-3 7q-5 3 -7 3h-770
z" />
    <glyph glyph-name="minus" unicode="&#x2212;" horiz-adv-x="788" 
 />
    <glyph glyph-name="radical" unicode="&#x221a;" 
d="M835 590v-140h-300l-7 -3q-3 -5 -3 -7v-605h-130v145l-3 8q-5 3 -7 3l-300 -1v140h300l7 3l3 7v450h440zM378 607q-3 -5 -3 -7v-450h-300l-7 -3q-3 -5 -3 -7v-160l3 -6l7 -3l300 -1v-145l3 -6l7 -3l150 -1q6 2 8 5.5t2 5.5v604h300l7 3l3 7v160l-3 7q-5 3 -7 3h-460z" />
    <glyph glyph-name="infinity" unicode="&#x221e;" 
d="M840 435v-445h-755v445h755zM215 140l3 -7l7 -3h160l7 3l3 7v150l-3 7q-5 3 -7 3h-160l-7 -3q-3 -5 -3 -7v-150zM520 140l3 -7l7 -3h160l7 3l3 7v150l-3 7q-5 3 -7 3h-160l-7 -3q-3 -5 -3 -7v-150zM680 280v-130h-140v130h140zM375 280v-130h-140v130h140zM68 452
q-3 -5 -3 -7v-465l3 -6l7 -3l775 -1q6 2 8 5.5t2 5.5v464l-3 7q-5 3 -7 3h-775z" />
    <glyph glyph-name="orthogonal" unicode="&#x221f;" horiz-adv-x="788" 
 />
    <glyph glyph-name="intersection" unicode="&#x2229;" horiz-adv-x="788" 
 />
    <glyph glyph-name="integral" unicode="&#x222b;" 
d="M905 590v-140h-140l-7 -3q-3 -5 -3 -7v-605h-135v605l-3 7q-5 3 -7 3h-525v140h820zM68 607q-3 -5 -3 -7v-160l3 -7l7 -3h525v-605l3 -6l7 -3l155 -1q6 2 8 5.5t2 5.5v604h140l7 3l3 7v160l-3 7q-5 3 -7 3h-840z" />
    <glyph glyph-name="approxequal" unicode="&#x2248;" 
d="M525 125v-145l3 -6l7 -3l300 -1v-135h-440v140l-3 8q-5 3 -7 3l-300 -1v140h440zM525 590v-145l3 -7l7 -3h300v-135h-440v140l-3 7q-5 3 -7 3h-300v140h440zM68 607q-3 -5 -3 -7v-160l3 -7l7 -3h300v-140l3 -7l7 -3h460l7 3l3 7v155l-3 7q-5 3 -7 3h-300v145l-3 7
q-5 3 -7 3h-460zM68 142q-3 -5 -3 -7v-160l3 -6l7 -3l300 -1v-140l3 -6l7 -3l460 -1q6 2 8 5.5t2 5.5v154l-3 8q-5 3 -7 3l-300 -1v145l-3 7q-5 3 -7 3h-460z" />
    <glyph glyph-name="notequal" unicode="&#x2260;" 
d="M390 -165v145l-3 8q-5 3 -7 3l-300 -1v135h750v-135h-300l-7 -2l-3 -7v-146h-130zM525 590v-145l3 -7l7 -3h300v-135h-750v135h300l7 3l3 7v145h130zM378 607q-3 -5 -3 -7v-145h-300l-7 -3q-3 -5 -3 -7v-155l3 -7l7 -3h770l7 3l3 7v155l-3 7q-5 3 -7 3h-300v145l-3 7
q-5 3 -7 3h-150zM537 -181q3 5 3 7v144h300q6 2 8 5.5t2 5.5v154l-3 7q-5 3 -7 3h-770l-7 -3q-3 -5 -3 -7v-155l3 -6l7 -3l300 -1v-145l3 -6l7 -3l150 -1q6 2 7 4z" />
    <glyph glyph-name="equivalence" unicode="&#x2261;" horiz-adv-x="788" 
 />
    <glyph glyph-name="lessequal" unicode="&#x2264;" 
d="M835 -25v-140h-750v140h750zM525 590v-140h-140l-7 -3q-3 -5 -3 -7v-145l3 -7l7 -3h450v-140h-600v145l-3 7q-5 3 -7 3h-140v135h140l7 3l3 7v145h290zM218 607q-3 -5 -3 -7v-145h-140l-7 -3q-3 -5 -3 -7v-155l3 -7l7 -3h140v-145l3 -7l7 -3h620l7 3l3 7v160l-3 7
q-5 3 -7 3h-450v125h140l7 3l3 7v160l-3 7q-5 3 -7 3h-310zM68 -7l-3 -7v-161l3 -6l7 -3l770 -1q6 2 8 5.5t2 5.5v159l-3 8q-5 3 -7 3l-770 -1z" />
    <glyph glyph-name="greaterequal" unicode="&#x2265;" 
d="M835 -25v-140h-750v140h750zM687 590v-145l3 -7l7 -3h140v-135h-140l-7 -3q-3 -5 -3 -7v-145h-600v140h450l7 3l3 7v145l-3 7q-5 3 -7 3h-140v140h290zM380 607q-3 -5 -3 -7v-160l3 -7l7 -3h140v-125h-450l-7 -3q-3 -5 -3 -7v-160l3 -7l7 -3h620l7 3l3 7v145h140l7 3l3 7
v155l-3 7q-5 3 -7 3h-140v145l-3 7q-5 3 -7 3h-310zM68 -7l-3 -7v-161l3 -6l7 -3l770 -1q6 2 8 5.5t2 5.5v159l-3 8q-5 3 -7 3l-770 -1z" />
    <glyph glyph-name="house" unicode="&#x2302;" horiz-adv-x="788" 
 />
    <glyph glyph-name="revlogicalnot" unicode="&#x2310;" horiz-adv-x="788" 
 />
    <glyph glyph-name="integraltp" unicode="&#x2320;" horiz-adv-x="788" 
 />
    <glyph glyph-name="integralbt" unicode="&#x2321;" horiz-adv-x="788" 
 />
    <glyph glyph-name="2500" unicode="&#x2500;" horiz-adv-x="788" 
 />
    <glyph glyph-name="2502" unicode="&#x2502;" horiz-adv-x="788" 
 />
    <glyph glyph-name="250c" unicode="&#x250c;" horiz-adv-x="788" 
 />
    <glyph glyph-name="2510" unicode="&#x2510;" horiz-adv-x="788" 
 />
    <glyph glyph-name="2514" unicode="&#x2514;" horiz-adv-x="788" 
 />
    <glyph glyph-name="2518" unicode="&#x2518;" horiz-adv-x="788" 
 />
    <glyph glyph-name="251c" unicode="&#x251c;" horiz-adv-x="788" 
 />
    <glyph glyph-name="2524" unicode="&#x2524;" horiz-adv-x="788" 
 />
    <glyph glyph-name="252c" unicode="&#x252c;" horiz-adv-x="788" 
 />
    <glyph glyph-name="2534" unicode="&#x2534;" horiz-adv-x="788" 
 />
    <glyph glyph-name="253c" unicode="&#x253c;" horiz-adv-x="788" 
 />
    <glyph glyph-name="2550" unicode="&#x2550;" horiz-adv-x="788" 
 />
    <glyph glyph-name="2551" unicode="&#x2551;" horiz-adv-x="788" 
 />
    <glyph glyph-name="2552" unicode="&#x2552;" horiz-adv-x="788" 
 />
    <glyph glyph-name="2553" unicode="&#x2553;" horiz-adv-x="788" 
 />
    <glyph glyph-name="2554" unicode="&#x2554;" horiz-adv-x="788" 
 />
    <glyph glyph-name="2555" unicode="&#x2555;" horiz-adv-x="788" 
 />
    <glyph glyph-name="2556" unicode="&#x2556;" horiz-adv-x="788" 
 />
    <glyph glyph-name="2557" unicode="&#x2557;" horiz-adv-x="788" 
 />
    <glyph glyph-name="2558" unicode="&#x2558;" horiz-adv-x="788" 
 />
    <glyph glyph-name="2559" unicode="&#x2559;" horiz-adv-x="788" 
 />
    <glyph glyph-name="255a" unicode="&#x255a;" horiz-adv-x="788" 
 />
    <glyph glyph-name="255b" unicode="&#x255b;" horiz-adv-x="788" 
 />
    <glyph glyph-name="255c" unicode="&#x255c;" horiz-adv-x="788" 
 />
    <glyph glyph-name="255d" unicode="&#x255d;" horiz-adv-x="788" 
 />
    <glyph glyph-name="255e" unicode="&#x255e;" horiz-adv-x="788" 
 />
    <glyph glyph-name="255f" unicode="&#x255f;" horiz-adv-x="788" 
 />
    <glyph glyph-name="2560" unicode="&#x2560;" horiz-adv-x="788" 
 />
    <glyph glyph-name="2561" unicode="&#x2561;" horiz-adv-x="788" 
 />
    <glyph glyph-name="2562" unicode="&#x2562;" horiz-adv-x="788" 
 />
    <glyph glyph-name="2563" unicode="&#x2563;" horiz-adv-x="788" 
 />
    <glyph glyph-name="2564" unicode="&#x2564;" horiz-adv-x="788" 
 />
    <glyph glyph-name="2565" unicode="&#x2565;" horiz-adv-x="788" 
 />
    <glyph glyph-name="2566" unicode="&#x2566;" horiz-adv-x="788" 
 />
    <glyph glyph-name="2567" unicode="&#x2567;" horiz-adv-x="788" 
 />
    <glyph glyph-name="2568" unicode="&#x2568;" horiz-adv-x="788" 
 />
    <glyph glyph-name="2569" unicode="&#x2569;" horiz-adv-x="788" 
 />
    <glyph glyph-name="256a" unicode="&#x256a;" horiz-adv-x="788" 
 />
    <glyph glyph-name="256b" unicode="&#x256b;" horiz-adv-x="788" 
 />
    <glyph glyph-name="256c" unicode="&#x256c;" horiz-adv-x="788" 
 />
    <glyph glyph-name="upblock" unicode="&#x2580;" horiz-adv-x="788" 
 />
    <glyph glyph-name="dnblock" unicode="&#x2584;" horiz-adv-x="788" 
 />
    <glyph glyph-name="block" unicode="&#x2588;" horiz-adv-x="788" 
 />
    <glyph glyph-name="lfblock" unicode="&#x258c;" horiz-adv-x="788" 
 />
    <glyph glyph-name="rtblock" unicode="&#x2590;" horiz-adv-x="788" 
 />
    <glyph glyph-name="ltshade" unicode="&#x2591;" horiz-adv-x="788" 
 />
    <glyph glyph-name="shade" unicode="&#x2592;" horiz-adv-x="788" 
 />
    <glyph glyph-name="dkshade" unicode="&#x2593;" horiz-adv-x="788" 
 />
    <glyph glyph-name="filledbox" unicode="&#x25a0;" horiz-adv-x="788" 
 />
    <glyph glyph-name="filledrect" unicode="&#x25ac;" horiz-adv-x="788" 
 />
    <glyph glyph-name="triagup" unicode="&#x25b2;" horiz-adv-x="788" 
 />
    <glyph glyph-name="triagrt" unicode="&#x25ba;" horiz-adv-x="788" 
 />
    <glyph glyph-name="triagdn" unicode="&#x25bc;" horiz-adv-x="788" 
 />
    <glyph glyph-name="triaglf" unicode="&#x25c4;" horiz-adv-x="788" 
 />
    <glyph glyph-name="lozenge" unicode="&#x25ca;" 
d="M595 590v-145l3 -7l7 -3h150v-140l3 -7l7 -3h140v-140h-140l-7 -3q-3 -5 -3 -7v-145h-150l-7 -2l-3 -7v-146h-130v145l-3 8q-5 3 -7 3l-140 -1v145l-3 7q-5 3 -7 3h-150v140h150l7 3l3 7v140h140l-7 3l-3 7v-5l4 -7l6 -2q5 1 6 2l4 7v150h130zM615 440l-3 7q-5 3 -7 3
h-150l-7 -3q-3 -5 -3 -7v-140h-140l-7 -3q-3 -5 -3 -7v-150l3 -7l7 -3h140v-145l3 -6l7 -3l150 -1q6 2 8 5.5t2 5.5v144h150l7 3l3 7v150l-3 7q-5 3 -7 3h-150v140zM598 283l7 -3h150v-130h-150l-7 -3q-3 -5 -3 -7v-145h-130v145l-3 7q-5 3 -7 3h-140v130h140l7 3l3 7v140
h130v-140zM448 607q-3 -5 -3 -7v-145h-140l-7 -3q-3 -5 -3 -7v-140h-150l-7 -3q-3 -5 -3 -7v-160l3 -7l7 -3h150v-145l3 -6l7 -3l140 -1v-145l3 -6l7 -3l150 -1q6 2 8 5.5t2 5.5v144h150q6 2 8 5.5t2 5.5v144h140l7 3l3 7v160l-3 7q-5 3 -7 3h-140v140l-3 7q-5 3 -7 3h-150
v145l-3 7q-5 3 -7 3h-150z" />
    <glyph glyph-name="circle" unicode="&#x25cb;" horiz-adv-x="788" 
 />
    <glyph glyph-name="invbullet" unicode="&#x25d8;" horiz-adv-x="788" 
 />
    <glyph glyph-name="invcircle" unicode="&#x25d9;" horiz-adv-x="788" 
 />
    <glyph glyph-name="smileface" unicode="&#x263a;" horiz-adv-x="788" 
 />
    <glyph glyph-name="invsmileface" unicode="&#x263b;" horiz-adv-x="788" 
 />
    <glyph glyph-name="sun" unicode="&#x263c;" horiz-adv-x="788" 
 />
    <glyph glyph-name="female" unicode="&#x2640;" horiz-adv-x="788" 
 />
    <glyph glyph-name="male" unicode="&#x2642;" horiz-adv-x="788" 
 />
    <glyph glyph-name="spade" unicode="&#x2660;" horiz-adv-x="788" 
 />
    <glyph glyph-name="club" unicode="&#x2663;" horiz-adv-x="788" 
 />
    <glyph glyph-name="heart" unicode="&#x2665;" horiz-adv-x="788" 
 />
    <glyph glyph-name="diamond" unicode="&#x2666;" horiz-adv-x="788" 
 />
    <glyph glyph-name="musicalnote" unicode="&#x266a;" horiz-adv-x="788" 
 />
    <glyph glyph-name="musicalnotedbl" unicode="&#x266b;" horiz-adv-x="788" 
 />
    <glyph glyph-name="apple" unicode="&#xf000;" horiz-adv-x="788" 
 />
    <glyph glyph-name="degree" unicode="&#x1ac;" 
d="M84 -28h136v-136h-136v136zM67 -180l7 -3l156 -1q6 2 8 5.5t2 5.5v155l-3 8q-5 3 -7 3l-156 -1l-7 -2l-3 -7v-157z" />
    <glyph glyph-name="bullet" unicode="&#x1ad;" 
d="M675 590v-145l3 -7l7 -3h150v-440h-150l-7 -2l-3 -7v-151h-440v145l-3 8q-5 3 -7 3l-140 -1v445h140l7 3l3 7v145h440zM218 607q-3 -5 -3 -7v-145h-140l-7 -3q-3 -5 -3 -7v-465l3 -6l7 -3l140 -1v-145l3 -6l7 -3l460 -1q6 2 8 5.5t2 5.5v149h150q6 2 8 5.5t2 5.5v459
l-3 7q-5 3 -7 3h-150v145l-3 7q-5 3 -7 3h-460z" />
    <glyph glyph-name="endash" unicode="&#x1ae;" 
d="M680 285v-140h-445v140h445zM218 302q-3 -5 -3 -7v-160l3 -7l7 -3h465l7 3l3 7v160l-3 7q-5 3 -7 3h-465z" />
    <glyph glyph-name="middot" unicode="&#x1af;" horiz-adv-x="788" 
 />
  </font>
</defs>
</svg>
